<?xml version="1.0" encoding="UTF-8"?>
<svg height="600" width="800" xmlns="http://www.w3.org/2000/svg" xmlns:xlink="http://www.w3.org/1999/xlink">
    <g id="Notes" font-family="'LucidaGrande', 'Lucida Grande', sans-serif" font-size="13">
        <rect fill="white" height="600.0" width="800.0" x="0.0" y="0.0" />
        <g font-size="13">
            <text x="18.0" y="176.0">Small</text>
            <text x="18.0" y="376.0">Medium</text>
            <text x="18.0" y="576.0">Large</text>
        </g>
        <g font-size="9">
            <text x="250.0" y="30.0">Ultralight</text>
            <text x="450.0" y="30.0">Regular</text>
            <text x="650.0" y="30.0">Black</text>
            <text id="template-version" fill="#505050" text-anchor="end" x="785.0" y="575.0">Template v.3.0</text>
            <a href="https://wangchujiang.com/#/app">
                <text fill="#505050" text-anchor="end" x="785.0" y="590.0">https://wangchujiang.com/#/app</text>
            </a>
        </g>
    </g>
    <g id="Guides" stroke="rgb(39, 170, 225)" stroke-width="0.5">
        <path id="Capline-S" d="M18,76 l800,0" />
        <path id="H-reference" d="M85,145.755 L87.685,145.755 L113.369,79.287 L114.052,79.287 L114.052,76 L112.148,76 L85,145.755 Z M95.693,121.536 L130.996,121.536 L130.263,119.313 L96.474,119.313 L95.693,121.536 Z M139.15,145.755 L141.787,145.755 L114.638,76 L113.466,76 L113.466,79.287 L139.15,145.755 Z" stroke="none" />
        <path id="Baseline-S" d="M18,146 l800,0" />
        <path id="left-margin-Ultralight-S" d="M219.737,56 l0,110" />
        <path id="right-margin-Ultralight-S" d="M310.263,56 l0,110" />
        <path id="left-margin-Regular-S" d="M419.737,56 l0,110" />
        <path id="right-margin-Regular-S" d="M510.263,56 l0,110" />
        <path id="left-margin-Black-S" d="M619.737,56 l0,110" />
        <path id="right-margin-Black-S" d="M710.263,56 l0,110" />
        <path id="Capline-M" d="M18,276 l800,0" />
        <path id="Baseline-M" d="M18,346 l800,0" />
        <path id="Capline-L" d="M18,476 l800,0" />
        <path id="Baseline-L" d="M18,546 l800,0" />
    </g>
    <g id="Symbols">
        <g id="Ultralight-S">
            <path d="M281.614,76 L293.258,76 C294.13,76 294.816,76.745 294.743,77.614 L293.575,91.538 C293.511,92.31 292.866,92.904 292.091,92.904 L284.095,92.904 C283.273,92.904 282.606,93.571 282.606,94.393 L282.606,123.617 C282.606,124.395 283.236,125.025 284.013,125.025 L284.706,125.025 C285.101,125.025 285.421,125.345 285.421,125.74 C285.421,126.118 285.715,126.43 286.093,126.453 L287.175,126.518 C287.578,126.542 287.918,126.222 287.918,125.819 C287.918,125.432 288.231,125.118 288.618,125.118 L290.709,125.118 C291.126,125.118 291.464,125.456 291.464,125.873 C291.464,126.264 291.762,126.59 292.151,126.624 L298.906,127.229 C299.674,127.298 300.263,127.942 300.263,128.713 L300.263,131.435 C300.263,131.791 299.974,132.079 299.619,132.079 C299.308,132.079 299.041,132.302 298.986,132.609 L296.805,144.773 C296.678,145.483 296.075,146 295.354,146 L231.051,146 C230.465,146 229.985,144.714 229.779,143.935 C229.75,143.824 229.737,143.709 229.737,143.595 L229.737,132.619 C229.737,132.27 229.86,131.932 230.084,131.664 L239.982,119.808 C240.728,118.914 240.206,117.547 239.053,117.379 L235.859,116.914 C235.55,116.869 235.235,116.922 234.958,117.065 L234.014,117.555 C233.022,118.069 231.838,117.349 231.838,116.232 L231.838,106.135 C231.838,105.057 232.948,104.336 233.933,104.773 L235.02,105.256 C235.259,105.363 235.521,105.404 235.781,105.376 L267.541,102.014 C268.299,101.933 268.874,101.294 268.874,100.532 L268.874,90.467 C268.874,90.366 268.884,90.265 268.905,90.167 L271.409,78.001 C271.542,77.359 272.079,76.878 272.732,76.818 L281.614,76 Z" />
        </g>
        <g id="Regular-S">
            <path d="M481.614,76 L493.258,76 C494.13,76 494.816,76.745 494.743,77.614 L493.575,91.538 C493.511,92.31 492.865,92.904 492.091,92.904 L484.095,92.904 C483.273,92.904 482.606,93.571 482.606,94.393 L482.606,123.617 C482.606,124.395 483.236,125.025 484.013,125.025 L484.706,125.025 C485.101,125.025 485.421,125.345 485.421,125.74 C485.421,126.118 485.715,126.43 486.093,126.453 L487.175,126.518 C487.578,126.542 487.918,126.222 487.918,125.819 C487.918,125.432 488.231,125.118 488.618,125.118 L490.709,125.118 C491.126,125.118 491.464,125.456 491.464,125.873 C491.464,126.264 491.762,126.59 492.151,126.624 L498.906,127.229 C499.674,127.298 500.263,127.942 500.263,128.713 L500.263,131.435 C500.263,131.791 499.974,132.079 499.619,132.079 C499.308,132.079 499.041,132.302 498.986,132.609 L496.805,144.773 C496.678,145.483 496.075,146 495.354,146 L431.051,146 C430.465,146 429.985,144.714 429.779,143.935 C429.75,143.824 429.737,143.709 429.737,143.595 L429.737,132.619 C429.737,132.27 429.86,131.932 430.084,131.664 L439.982,119.808 C440.728,118.914 440.206,117.547 439.053,117.379 L435.859,116.914 C435.55,116.869 435.235,116.922 434.958,117.065 L434.014,117.555 C433.022,118.069 431.838,117.349 431.838,116.232 L431.838,106.135 C431.838,105.057 432.948,104.336 433.933,104.773 L435.02,105.256 C435.259,105.363 435.521,105.404 435.781,105.376 L467.541,102.014 C468.299,101.933 468.874,101.294 468.874,100.532 L468.874,90.467 C468.874,90.366 468.884,90.265 468.905,90.167 L471.409,78.001 C471.542,77.359 472.079,76.878 472.732,76.818 L481.614,76 Z" />
        </g>
        <g id="Black-S">
            <path d="M681.614,76 L693.258,76 C694.13,76 694.816,76.745 694.743,77.614 L693.575,91.538 C693.511,92.31 692.866,92.904 692.091,92.904 L684.095,92.904 C683.273,92.904 682.606,93.571 682.606,94.393 L682.606,123.617 C682.606,124.395 683.236,125.025 684.013,125.025 L684.706,125.025 C685.101,125.025 685.421,125.345 685.421,125.74 C685.421,126.118 685.715,126.43 686.093,126.453 L687.175,126.518 C687.578,126.542 687.918,126.222 687.918,125.819 C687.918,125.432 688.231,125.118 688.618,125.118 L690.709,125.118 C691.126,125.118 691.464,125.456 691.464,125.873 C691.464,126.264 691.762,126.59 692.151,126.624 L698.906,127.229 C699.674,127.298 700.263,127.942 700.263,128.713 L700.263,131.435 C700.263,131.791 699.974,132.079 699.619,132.079 C699.308,132.079 699.041,132.302 698.986,132.609 L696.805,144.773 C696.678,145.483 696.075,146 695.354,146 L631.051,146 C630.465,146 629.985,144.714 629.779,143.935 C629.75,143.824 629.737,143.709 629.737,143.595 L629.737,132.619 C629.737,132.27 629.86,131.932 630.084,131.664 L639.982,119.808 C640.728,118.914 640.206,117.547 639.053,117.379 L635.859,116.914 C635.551,116.869 635.235,116.922 634.958,117.065 L634.014,117.555 C633.022,118.069 631.838,117.349 631.838,116.232 L631.838,106.135 C631.838,105.057 632.948,104.336 633.933,104.773 L635.02,105.256 C635.259,105.363 635.521,105.404 635.781,105.376 L667.541,102.014 C668.299,101.933 668.874,101.294 668.874,100.532 L668.874,90.467 C668.874,90.366 668.884,90.265 668.905,90.167 L671.409,78.001 C671.542,77.359 672.079,76.878 672.732,76.818 L681.614,76 Z" />
        </g>
    </g>
</svg>