<?xml version="1.0" encoding="UTF-8"?>
<svg height="600" width="800" xmlns="http://www.w3.org/2000/svg" xmlns:xlink="http://www.w3.org/1999/xlink">
    <g id="Notes" font-family="'LucidaGrande', 'Lucida Grande', sans-serif" font-size="13">
        <rect fill="white" height="600.0" width="800.0" x="0.0" y="0.0" />
        <g font-size="13">
            <text x="18.0" y="176.0">Small</text>
            <text x="18.0" y="376.0">Medium</text>
            <text x="18.0" y="576.0">Large</text>
        </g>
        <g font-size="9">
            <text x="250.0" y="30.0">Ultralight</text>
            <text x="450.0" y="30.0">Regular</text>
            <text x="650.0" y="30.0">Black</text>
            <text id="template-version" fill="#505050" text-anchor="end" x="785.0" y="575.0">Template v.3.0</text>
            <a href="https://wangchujiang.com/#/app">
                <text fill="#505050" text-anchor="end" x="785.0" y="590.0">https://wangchujiang.com/#/app</text>
            </a>
        </g>
    </g>
    <g id="Guides" stroke="rgb(39, 170, 225)" stroke-width="0.5">
        <path id="Capline-S" d="M18,76 l800,0" />
        <path id="H-reference" d="M85,145.755 L87.685,145.755 L113.369,79.287 L114.052,79.287 L114.052,76 L112.148,76 L85,145.755 Z M95.693,121.536 L130.996,121.536 L130.263,119.313 L96.474,119.313 L95.693,121.536 Z M139.15,145.755 L141.787,145.755 L114.638,76 L113.466,76 L113.466,79.287 L139.15,145.755 Z" stroke="none" />
        <path id="Baseline-S" d="M18,146 l800,0" />
        <path id="left-margin-Ultralight-S" d="M211,56 l0,110" />
        <path id="right-margin-Ultralight-S" d="M319,56 l0,110" />
        <path id="left-margin-Regular-S" d="M411,56 l0,110" />
        <path id="right-margin-Regular-S" d="M519,56 l0,110" />
        <path id="left-margin-Black-S" d="M611,56 l0,110" />
        <path id="right-margin-Black-S" d="M719,56 l0,110" />
        <path id="Capline-M" d="M18,276 l800,0" />
        <path id="Baseline-M" d="M18,346 l800,0" />
        <path id="Capline-L" d="M18,476 l800,0" />
        <path id="Baseline-L" d="M18,546 l800,0" />
    </g>
    <g id="Symbols">
        <g id="Ultralight-S">
            <path d="M221.01,113.961 L222.484,131.912 C222.611,133.467 223.91,134.664 225.471,134.664 L305.654,134.664 C307.254,134.664 308.571,133.409 308.646,131.812 C308.983,124.545 309.292,116.013 308.51,114.606 C307.749,113.236 299.527,111.659 293.802,110.772 C292.321,110.543 291.217,109.277 291.217,107.779 L291.217,91.77 C291.217,90.16 289.946,88.838 288.337,88.775 L251.531,87.336 C238.801,87.508 226.433,103.544 221.385,112.264 C221.087,112.777 220.962,113.37 221.01,113.961 Z" />
        </g>
        <g id="Regular-S">
            <path d="M421.01,113.961 L422.484,131.912 C422.611,133.467 423.91,134.664 425.471,134.664 L505.654,134.664 C507.254,134.664 508.571,133.409 508.646,131.812 C508.983,124.545 509.292,116.013 508.51,114.606 C507.749,113.236 499.527,111.659 493.802,110.772 C492.321,110.543 491.217,109.277 491.217,107.779 L491.217,91.77 C491.217,90.16 489.946,88.838 488.337,88.775 L451.531,87.336 C438.801,87.508 426.433,103.544 421.385,112.264 C421.087,112.777 420.962,113.37 421.01,113.961 Z" />
        </g>
        <g id="Black-S">
            <path d="M621.01,113.961 L622.484,131.912 C622.611,133.467 623.91,134.664 625.471,134.664 L705.654,134.664 C707.254,134.664 708.571,133.409 708.646,131.812 C708.983,124.545 709.292,116.013 708.51,114.606 C707.749,113.236 699.527,111.659 693.802,110.772 C692.321,110.543 691.217,109.277 691.217,107.779 L691.217,91.77 C691.217,90.16 689.946,88.838 688.337,88.775 L651.531,87.336 C638.801,87.508 626.433,103.544 621.385,112.264 C621.087,112.777 620.962,113.37 621.01,113.961 Z" />
        </g>
    </g>
</svg>