<?xml version="1.0" encoding="UTF-8"?>
<svg height="600" width="800" xmlns="http://www.w3.org/2000/svg" xmlns:xlink="http://www.w3.org/1999/xlink">
    <g id="Notes" font-family="'LucidaGrande', 'Lucida Grande', sans-serif" font-size="13">
        <rect fill="white" height="600.0" width="800.0" x="0.0" y="0.0" />
        <g font-size="13">
            <text x="18.0" y="176.0">Small</text>
            <text x="18.0" y="376.0">Medium</text>
            <text x="18.0" y="576.0">Large</text>
        </g>
        <g font-size="9">
            <text x="250.0" y="30.0">Ultralight</text>
            <text x="450.0" y="30.0">Regular</text>
            <text x="650.0" y="30.0">Black</text>
            <text id="template-version" fill="#505050" text-anchor="end" x="785.0" y="575.0">Template v.3.0</text>
            <a href="https://wangchujiang.com/#/app">
                <text fill="#505050" text-anchor="end" x="785.0" y="590.0">https://wangchujiang.com/#/app</text>
            </a>
        </g>
    </g>
    <g id="Guides" stroke="rgb(39, 170, 225)" stroke-width="0.5">
        <path id="Capline-S" d="M18,76 l800,0" />
        <path id="H-reference" d="M85,145.755 L87.685,145.755 L113.369,79.287 L114.052,79.287 L114.052,76 L112.148,76 L85,145.755 Z M95.693,121.536 L130.996,121.536 L130.263,119.313 L96.474,119.313 L95.693,121.536 Z M139.15,145.755 L141.787,145.755 L114.638,76 L113.466,76 L113.466,79.287 L139.15,145.755 Z" stroke="none" />
        <path id="Baseline-S" d="M18,146 l800,0" />
        <path id="left-margin-Ultralight-S" d="M219.061,56 l0,110" />
        <path id="right-margin-Ultralight-S" d="M310.939,56 l0,110" />
        <path id="left-margin-Regular-S" d="M419.061,56 l0,110" />
        <path id="right-margin-Regular-S" d="M510.939,56 l0,110" />
        <path id="left-margin-Black-S" d="M619.061,56 l0,110" />
        <path id="right-margin-Black-S" d="M710.939,56 l0,110" />
        <path id="Capline-M" d="M18,276 l800,0" />
        <path id="Baseline-M" d="M18,346 l800,0" />
        <path id="Capline-L" d="M18,476 l800,0" />
        <path id="Baseline-L" d="M18,546 l800,0" />
    </g>
    <g id="Symbols">
        <g id="Ultralight-S">
            <path d="M269.139,77.42 L279.514,80.36 C280.17,80.546 280.623,81.145 280.623,81.828 L280.623,89.523 L280.623,90.648 C280.623,91.49 279.94,92.173 279.098,92.173 L274.827,92.173 C273.701,92.173 272.963,93.353 273.455,94.366 L289.136,126.629 C289.295,126.958 289.568,127.218 289.904,127.363 L292.047,128.287 C292.195,128.351 292.353,128.391 292.515,128.406 L299.549,129.036 C300.467,129.118 301.104,129.989 300.902,130.889 L297.784,144.808 C297.627,145.505 297.024,146 296.31,146 L230.405,146 C229.806,146 229.314,144.683 229.103,143.885 C229.073,143.772 229.061,143.654 229.061,143.537 L229.061,132.752 C229.061,132.141 229.426,131.589 229.988,131.349 L242.173,126.156 C242.498,126.017 242.765,125.77 242.928,125.456 L255.273,101.689 C255.386,101.471 255.445,101.23 255.445,100.985 L255.445,89.678 C255.445,89.575 255.455,89.472 255.476,89.37 L257.978,77.218 C258.141,76.425 258.896,75.898 259.697,76.017 L269.139,77.42 Z" />
        </g>
        <g id="Regular-S">
            <path d="M469.139,77.42 L479.514,80.36 C480.17,80.546 480.623,81.145 480.623,81.828 L480.623,89.523 L480.623,90.648 C480.623,91.49 479.94,92.173 479.098,92.173 L474.827,92.173 C473.701,92.173 472.963,93.353 473.455,94.366 L489.136,126.629 C489.295,126.958 489.568,127.218 489.904,127.363 L492.047,128.287 C492.195,128.351 492.353,128.391 492.515,128.406 L499.549,129.036 C500.467,129.118 501.104,129.989 500.902,130.889 L497.784,144.808 C497.627,145.505 497.024,146 496.31,146 L430.405,146 C429.806,146 429.314,144.683 429.103,143.885 C429.073,143.772 429.061,143.654 429.061,143.537 L429.061,132.752 C429.061,132.141 429.426,131.589 429.988,131.349 L442.173,126.156 C442.498,126.017 442.765,125.77 442.928,125.456 L455.273,101.689 C455.386,101.471 455.445,101.23 455.445,100.985 L455.445,89.678 C455.445,89.575 455.455,89.472 455.476,89.37 L457.978,77.218 C458.141,76.425 458.896,75.898 459.697,76.017 L469.139,77.42 Z" />
        </g>
        <g id="Black-S">
            <path d="M669.139,77.42 L679.514,80.36 C680.17,80.546 680.623,81.145 680.623,81.828 L680.623,89.523 L680.623,90.648 C680.623,91.49 679.94,92.173 679.098,92.173 L674.827,92.173 C673.701,92.173 672.963,93.353 673.455,94.366 L689.136,126.629 C689.295,126.958 689.568,127.218 689.904,127.363 L692.047,128.287 C692.195,128.351 692.353,128.391 692.515,128.406 L699.549,129.036 C700.467,129.118 701.104,129.989 700.902,130.889 L697.784,144.808 C697.627,145.505 697.024,146 696.31,146 L630.405,146 C629.806,146 629.314,144.683 629.103,143.885 C629.073,143.772 629.061,143.654 629.061,143.537 L629.061,132.752 C629.061,132.141 629.426,131.589 629.988,131.349 L642.172,126.156 C642.498,126.017 642.765,125.77 642.928,125.456 L655.273,101.689 C655.386,101.471 655.445,101.23 655.445,100.985 L655.445,89.678 C655.445,89.575 655.455,89.472 655.476,89.37 L657.978,77.218 C658.141,76.425 658.896,75.898 659.697,76.017 L669.139,77.42 Z" />
        </g>
    </g>
</svg>