<?xml version="1.0" encoding="UTF-8"?>
<svg height="600" width="800" xmlns="http://www.w3.org/2000/svg" xmlns:xlink="http://www.w3.org/1999/xlink">
    <g id="Notes" font-family="'LucidaGrande', 'Lucida Grande', sans-serif" font-size="13">
        <rect fill="white" height="600.0" width="800.0" x="0.0" y="0.0" />
        <g font-size="13">
            <text x="18.0" y="176.0">Small</text>
            <text x="18.0" y="376.0">Medium</text>
            <text x="18.0" y="576.0">Large</text>
        </g>
        <g font-size="9">
            <text x="250.0" y="30.0">Ultralight</text>
            <text x="450.0" y="30.0">Regular</text>
            <text x="650.0" y="30.0">Black</text>
            <text id="template-version" fill="#505050" text-anchor="end" x="785.0" y="575.0">Template v.3.0</text>
            <a href="https://wangchujiang.com/#/app">
                <text fill="#505050" text-anchor="end" x="785.0" y="590.0">https://wangchujiang.com/#/app</text>
            </a>
        </g>
    </g>
    <g id="Guides" stroke="rgb(39, 170, 225)" stroke-width="0.5">
        <path id="Capline-S" d="M18,76 l800,0" />
        <path id="H-reference" d="M85,145.755 L87.685,145.755 L113.369,79.287 L114.052,79.287 L114.052,76 L112.148,76 L85,145.755 Z M95.693,121.536 L130.996,121.536 L130.263,119.313 L96.474,119.313 L95.693,121.536 Z M139.15,145.755 L141.787,145.755 L114.638,76 L113.466,76 L113.466,79.287 L139.15,145.755 Z" stroke="none" />
        <path id="Baseline-S" d="M18,146 l800,0" />
        <path id="left-margin-Ultralight-S" d="M211,56 l0,110" />
        <path id="right-margin-Ultralight-S" d="M319,56 l0,110" />
        <path id="left-margin-Regular-S" d="M411,56 l0,110" />
        <path id="right-margin-Regular-S" d="M519,56 l0,110" />
        <path id="left-margin-Black-S" d="M611,56 l0,110" />
        <path id="right-margin-Black-S" d="M719,56 l0,110" />
        <path id="Capline-M" d="M18,276 l800,0" />
        <path id="Baseline-M" d="M18,346 l800,0" />
        <path id="Capline-L" d="M18,476 l800,0" />
        <path id="Baseline-L" d="M18,546 l800,0" />
    </g>
    <g id="Symbols">
        <g id="Ultralight-S">
            <path d="M295.284,103.499 L295.284,89.91 C295.284,88.919 294.557,88.078 293.576,87.935 L283.782,86.508 C283.474,86.463 283.159,86.491 282.863,86.589 L278.318,88.104 C278.16,88.157 277.997,88.19 277.831,88.202 L267.537,88.948 C267.275,88.967 267.019,89.037 266.784,89.155 L231.809,106.76 C231.53,106.9 231.223,106.973 230.912,106.973 L227.858,106.973 C227.622,106.973 227.388,106.931 227.166,106.849 L224.189,105.749 C223.967,105.667 223.733,105.625 223.497,105.625 L222.996,105.625 C221.893,105.625 221,106.518 221,107.621 L221,119.482 C221,119.902 221.15,120.308 221.424,120.628 C221.758,121.018 222.247,121.243 222.761,121.243 L223.16,121.243 C223.609,121.243 224.046,121.091 224.398,120.812 L225.404,120.016 C225.633,119.835 225.916,119.737 226.207,119.737 C226.922,119.737 227.501,120.316 227.501,121.03 L227.501,125.028 C227.501,125.521 227.9,125.92 228.393,125.92 C228.763,125.92 229.094,126.148 229.226,126.494 L229.906,128.271 C229.993,128.499 230.038,128.741 230.038,128.984 L230.038,130.534 C230.038,130.937 230.16,131.331 230.388,131.663 L231.599,133.428 C231.822,133.754 232.137,134.006 232.503,134.152 L235.548,135.37 C235.783,135.465 236.035,135.513 236.289,135.513 L298.222,135.513 C298.532,135.513 298.838,135.441 299.115,135.302 L302.2,133.76 C302.694,133.513 303.063,133.072 303.221,132.542 L304.559,128.024 C304.747,127.388 305.333,126.951 305.997,126.951 C306.689,126.951 307.291,126.477 307.453,125.804 L308.943,119.651 C308.981,119.497 309,119.34 309,119.181 L309,113.459 C309,112.734 308.606,112.066 307.972,111.714 L296.311,105.244 C295.677,104.892 295.284,104.224 295.284,103.499 Z" />
        </g>
        <g id="Regular-S">
            <path d="M495.284,103.499 L495.284,89.91 C495.284,88.919 494.557,88.078 493.576,87.935 L483.782,86.508 C483.474,86.463 483.159,86.491 482.863,86.589 L478.318,88.104 C478.16,88.157 477.997,88.19 477.831,88.202 L467.537,88.948 C467.275,88.967 467.019,89.037 466.784,89.155 L431.809,106.76 C431.53,106.9 431.223,106.973 430.912,106.973 L427.858,106.973 C427.622,106.973 427.388,106.931 427.166,106.849 L424.189,105.749 C423.967,105.667 423.733,105.625 423.497,105.625 L422.996,105.625 C421.893,105.625 421,106.518 421,107.621 L421,119.482 C421,119.902 421.15,120.308 421.424,120.628 C421.758,121.018 422.247,121.243 422.761,121.243 L423.16,121.243 C423.609,121.243 424.046,121.091 424.398,120.812 L425.404,120.016 C425.633,119.835 425.916,119.737 426.207,119.737 C426.922,119.737 427.501,120.316 427.501,121.03 L427.501,125.028 C427.501,125.521 427.9,125.92 428.393,125.92 C428.763,125.92 429.094,126.148 429.226,126.494 L429.906,128.271 C429.993,128.499 430.038,128.741 430.038,128.984 L430.038,130.534 C430.038,130.937 430.16,131.331 430.388,131.663 L431.599,133.428 C431.822,133.754 432.137,134.006 432.503,134.152 L435.548,135.37 C435.783,135.465 436.035,135.513 436.289,135.513 L498.222,135.513 C498.532,135.513 498.838,135.441 499.115,135.302 L502.2,133.76 C502.694,133.513 503.063,133.072 503.221,132.542 L504.559,128.024 C504.747,127.388 505.333,126.951 505.997,126.951 C506.689,126.951 507.291,126.477 507.453,125.804 L508.943,119.651 C508.981,119.497 509,119.34 509,119.181 L509,113.459 C509,112.734 508.606,112.066 507.972,111.714 L496.311,105.244 C495.677,104.892 495.284,104.224 495.284,103.499 Z" />
        </g>
        <g id="Black-S">
            <path d="M695.284,103.499 L695.284,89.91 C695.284,88.919 694.557,88.078 693.576,87.935 L683.782,86.508 C683.474,86.463 683.159,86.491 682.863,86.589 L678.318,88.104 C678.16,88.157 677.997,88.19 677.831,88.202 L667.537,88.948 C667.275,88.967 667.019,89.037 666.784,89.155 L631.809,106.76 C631.53,106.9 631.223,106.973 630.911,106.973 L627.858,106.973 C627.622,106.973 627.388,106.931 627.166,106.849 L624.189,105.749 C623.967,105.667 623.733,105.625 623.497,105.625 L622.996,105.625 C621.893,105.625 621,106.518 621,107.621 L621,119.482 C621,119.902 621.15,120.308 621.424,120.628 C621.758,121.018 622.247,121.243 622.761,121.243 L623.16,121.243 C623.609,121.243 624.046,121.091 624.398,120.812 L625.404,120.016 C625.633,119.835 625.916,119.737 626.207,119.737 C626.922,119.737 627.501,120.316 627.501,121.03 L627.501,125.028 C627.501,125.521 627.9,125.92 628.393,125.92 C628.763,125.92 629.094,126.148 629.226,126.494 L629.906,128.271 C629.993,128.499 630.038,128.741 630.038,128.984 L630.038,130.534 C630.038,130.937 630.16,131.331 630.388,131.663 L631.599,133.428 C631.822,133.754 632.137,134.006 632.503,134.152 L635.548,135.37 C635.783,135.465 636.035,135.513 636.289,135.513 L698.222,135.513 C698.532,135.513 698.838,135.441 699.115,135.302 L702.2,133.76 C702.694,133.513 703.063,133.072 703.221,132.542 L704.559,128.024 C704.747,127.388 705.333,126.951 705.997,126.951 C706.689,126.951 707.291,126.477 707.453,125.804 L708.943,119.651 C708.981,119.497 709,119.34 709,119.181 L709,113.459 C709,112.734 708.606,112.066 707.972,111.714 L696.311,105.244 C695.677,104.892 695.284,104.224 695.284,103.499 Z" />
        </g>
    </g>
</svg>