<?xml version="1.0" encoding="UTF-8"?>
<svg height="600" width="800" xmlns="http://www.w3.org/2000/svg" xmlns:xlink="http://www.w3.org/1999/xlink">
    <g id="Notes" font-family="'LucidaGrande', 'Lucida Grande', sans-serif" font-size="13">
        <rect fill="white" height="600.0" width="800.0" x="0.0" y="0.0" />
        <g font-size="13">
            <text x="18.0" y="176.0">Small</text>
            <text x="18.0" y="376.0">Medium</text>
            <text x="18.0" y="576.0">Large</text>
        </g>
        <g font-size="9">
            <text x="250.0" y="30.0">Ultralight</text>
            <text x="450.0" y="30.0">Regular</text>
            <text x="650.0" y="30.0">Black</text>
            <text id="template-version" fill="#505050" text-anchor="end" x="785.0" y="575.0">Template v.3.0</text>
            <a href="https://wangchujiang.com/#/app">
                <text fill="#505050" text-anchor="end" x="785.0" y="590.0">https://wangchujiang.com/#/app</text>
            </a>
        </g>
    </g>
    <g id="Guides" stroke="rgb(39, 170, 225)" stroke-width="0.5">
        <path id="Capline-S" d="M18,76 l800,0" />
        <path id="H-reference" d="M85,145.755 L87.685,145.755 L113.369,79.287 L114.052,79.287 L114.052,76 L112.148,76 L85,145.755 Z M95.693,121.536 L130.996,121.536 L130.263,119.313 L96.474,119.313 L95.693,121.536 Z M139.15,145.755 L141.787,145.755 L114.638,76 L113.466,76 L113.466,79.287 L139.15,145.755 Z" stroke="none" />
        <path id="Baseline-S" d="M18,146 l800,0" />
        <path id="left-margin-Ultralight-S" d="M211,56 l0,110" />
        <path id="right-margin-Ultralight-S" d="M319,56 l0,110" />
        <path id="left-margin-Regular-S" d="M411,56 l0,110" />
        <path id="right-margin-Regular-S" d="M519,56 l0,110" />
        <path id="left-margin-Black-S" d="M611,56 l0,110" />
        <path id="right-margin-Black-S" d="M719,56 l0,110" />
        <path id="Capline-M" d="M18,276 l800,0" />
        <path id="Baseline-M" d="M18,346 l800,0" />
        <path id="Capline-L" d="M18,476 l800,0" />
        <path id="Baseline-L" d="M18,546 l800,0" />
    </g>
    <g id="Symbols">
        <g id="Ultralight-S">
            <path d="M223.934,82.818 L225.972,84.458 C226.247,84.679 226.593,84.793 226.945,84.777 L265.785,83.09 L283.717,82.375 L289.656,82.964 C290.381,83.036 290.94,83.634 290.963,84.362 L291.307,95.026 L290.422,104.818 C290.394,105.129 290.133,105.367 289.821,105.367 C289.487,105.367 289.217,105.637 289.217,105.971 L289.217,107.271 C289.217,108.073 288.567,108.722 287.766,108.722 L284.432,108.722 L304.614,112.952 C304.971,113.027 305.286,113.232 305.498,113.529 L308.73,118.053 C308.917,118.316 309.012,118.634 308.999,118.957 L308.198,138.234 C308.165,139.016 307.518,139.631 306.736,139.625 L223.904,138.979 C223.665,138.977 223.43,138.916 223.22,138.802 L222.278,138.288 C221.925,138.095 221.668,137.765 221.568,137.375 L221.246,136.129 C221.216,136.01 221.2,135.889 221.2,135.767 L221.2,122.963 C221.2,122.599 221.337,122.248 221.584,121.98 L237.681,104.48 C237.788,104.364 237.875,104.231 237.939,104.087 L238.613,102.572 C238.74,102.284 238.771,101.963 238.701,101.656 L238.567,101.078 C238.489,100.741 238.295,100.444 238.018,100.238 L237.537,99.882 C237.316,99.717 237.051,99.62 236.776,99.6 L227.272,98.921 C227.12,98.91 226.968,98.923 226.821,98.96 L224.218,99.601 C224.141,99.62 224.065,99.646 223.992,99.677 L223.025,100.093 C222.046,100.515 220.962,99.772 221.001,98.708 L221.536,83.921 C221.553,83.461 221.787,83.036 222.167,82.776 L222.204,82.751 C222.732,82.389 223.435,82.417 223.934,82.818 Z" />
        </g>
        <g id="Regular-S">
            <path d="M423.934,82.818 L425.972,84.458 C426.247,84.679 426.593,84.793 426.945,84.777 L465.785,83.09 L483.717,82.375 L489.656,82.964 C490.381,83.036 490.94,83.634 490.963,84.362 L491.307,95.026 L490.422,104.818 C490.394,105.129 490.133,105.367 489.821,105.367 C489.487,105.367 489.217,105.637 489.217,105.971 L489.217,107.271 C489.217,108.073 488.567,108.722 487.766,108.722 L484.432,108.722 L504.614,112.952 C504.971,113.027 505.286,113.232 505.498,113.529 L508.73,118.053 C508.917,118.316 509.012,118.634 508.999,118.957 L508.198,138.234 C508.165,139.016 507.518,139.631 506.736,139.625 L423.904,138.979 C423.665,138.977 423.43,138.916 423.22,138.802 L422.278,138.288 C421.925,138.095 421.668,137.765 421.568,137.375 L421.246,136.129 C421.216,136.01 421.2,135.889 421.2,135.767 L421.2,122.963 C421.2,122.599 421.337,122.248 421.584,121.98 L437.681,104.48 C437.788,104.364 437.875,104.231 437.939,104.087 L438.613,102.572 C438.74,102.284 438.771,101.963 438.701,101.656 L438.567,101.078 C438.489,100.741 438.295,100.444 438.018,100.238 L437.537,99.882 C437.316,99.717 437.051,99.62 436.776,99.6 L427.272,98.921 C427.12,98.91 426.968,98.923 426.821,98.96 L424.218,99.601 C424.141,99.62 424.065,99.646 423.992,99.677 L423.025,100.093 C422.046,100.515 420.962,99.772 421.001,98.708 L421.536,83.921 C421.553,83.461 421.787,83.036 422.167,82.776 L422.204,82.751 C422.732,82.389 423.435,82.417 423.934,82.818 Z" />
        </g>
        <g id="Black-S">
            <path d="M623.934,82.818 L625.972,84.458 C626.247,84.679 626.593,84.793 626.945,84.777 L665.785,83.09 L683.717,82.375 L689.656,82.964 C690.381,83.036 690.94,83.634 690.963,84.362 L691.307,95.026 L690.422,104.818 C690.394,105.129 690.133,105.367 689.821,105.367 C689.487,105.367 689.217,105.637 689.217,105.971 L689.217,107.271 C689.217,108.073 688.567,108.722 687.766,108.722 L684.432,108.722 L704.614,112.952 C704.971,113.027 705.286,113.232 705.498,113.529 L708.73,118.053 C708.917,118.316 709.012,118.634 708.999,118.957 L708.198,138.234 C708.165,139.016 707.518,139.631 706.736,139.625 L623.904,138.979 C623.665,138.977 623.43,138.916 623.22,138.802 L622.278,138.288 C621.925,138.095 621.668,137.765 621.568,137.375 L621.246,136.129 C621.216,136.01 621.2,135.889 621.2,135.767 L621.2,122.963 C621.2,122.599 621.337,122.248 621.584,121.98 L637.681,104.48 C637.788,104.364 637.875,104.231 637.939,104.087 L638.613,102.572 C638.74,102.284 638.771,101.963 638.701,101.656 L638.567,101.078 C638.489,100.741 638.295,100.444 638.018,100.238 L637.537,99.882 C637.316,99.717 637.051,99.62 636.776,99.6 L627.272,98.921 C627.12,98.91 626.968,98.923 626.821,98.96 L624.218,99.601 C624.141,99.62 624.065,99.646 623.992,99.677 L623.025,100.093 C622.046,100.515 620.962,99.772 621.001,98.708 L621.536,83.921 C621.553,83.461 621.787,83.036 622.167,82.776 L622.204,82.751 C622.732,82.389 623.435,82.417 623.934,82.818 Z" />
        </g>
    </g>
</svg>