<?xml version="1.0" encoding="UTF-8"?>
<svg height="600" width="800" xmlns="http://www.w3.org/2000/svg" xmlns:xlink="http://www.w3.org/1999/xlink">
    <g id="Notes" font-family="'LucidaGrande', 'Lucida Grande', sans-serif" font-size="13">
        <rect fill="white" height="600.0" width="800.0" x="0.0" y="0.0" />
        <g font-size="13">
            <text x="18.0" y="176.0">Small</text>
            <text x="18.0" y="376.0">Medium</text>
            <text x="18.0" y="576.0">Large</text>
        </g>
        <g font-size="9">
            <text x="250.0" y="30.0">Ultralight</text>
            <text x="450.0" y="30.0">Regular</text>
            <text x="650.0" y="30.0">Black</text>
            <text id="template-version" fill="#505050" text-anchor="end" x="785.0" y="575.0">Template v.3.0</text>
            <a href="https://wangchujiang.com/#/app">
                <text fill="#505050" text-anchor="end" x="785.0" y="590.0">https://wangchujiang.com/#/app</text>
            </a>
        </g>
    </g>
    <g id="Guides" stroke="rgb(39, 170, 225)" stroke-width="0.5">
        <path id="Capline-S" d="M18,76 l800,0" />
        <path id="H-reference" d="M85,145.755 L87.685,145.755 L113.369,79.287 L114.052,79.287 L114.052,76 L112.148,76 L85,145.755 Z M95.693,121.536 L130.996,121.536 L130.263,119.313 L96.474,119.313 L95.693,121.536 Z M139.15,145.755 L141.787,145.755 L114.638,76 L113.466,76 L113.466,79.287 L139.15,145.755 Z" stroke="none" />
        <path id="Baseline-S" d="M18,146 l800,0" />
        <path id="left-margin-Ultralight-S" d="M211,56 l0,110" />
        <path id="right-margin-Ultralight-S" d="M319,56 l0,110" />
        <path id="left-margin-Regular-S" d="M411,56 l0,110" />
        <path id="right-margin-Regular-S" d="M519,56 l0,110" />
        <path id="left-margin-Black-S" d="M611,56 l0,110" />
        <path id="right-margin-Black-S" d="M719,56 l0,110" />
        <path id="Capline-M" d="M18,276 l800,0" />
        <path id="Baseline-M" d="M18,346 l800,0" />
        <path id="Capline-L" d="M18,476 l800,0" />
        <path id="Baseline-L" d="M18,546 l800,0" />
    </g>
    <g id="Symbols">
        <g id="Ultralight-S">
            <path d="M276.099,81.255 L284.583,81.255 C285.646,81.255 286.507,82.117 286.507,83.179 C286.507,84.242 287.368,85.103 288.431,85.103 L289.438,85.103 C290.544,85.103 291.44,85.999 291.44,87.105 L291.44,109.344 C291.44,110.449 290.544,111.345 289.438,111.345 L289.091,111.345 C288.069,111.345 287.212,112.114 287.101,113.129 L286.643,117.304 C286.56,118.065 286.917,118.806 287.564,119.215 L287.922,119.441 C288.223,119.631 288.569,119.737 288.924,119.749 L307.065,120.357 C308.144,120.393 309,121.278 309,122.357 L309,138.225 C309,138.983 308.572,139.676 307.894,140.015 L306.858,140.533 C306.58,140.672 306.274,140.745 305.962,140.745 L274.705,140.745 C274.412,140.745 274.176,140.508 274.176,140.216 C274.176,139.849 273.812,139.594 273.467,139.718 L270.953,140.626 C270.735,140.704 270.505,140.745 270.273,140.745 L224.12,140.745 C223.635,140.745 223.166,140.569 222.801,140.249 L221.683,139.271 C221.249,138.891 221,138.342 221,137.765 L221,128.954 C221,127.963 221.726,127.121 222.706,126.974 L225.903,126.497 C226.884,126.351 227.609,125.509 227.609,124.517 L227.609,119.531 C227.609,118.91 227.897,118.325 228.388,117.946 L239.34,109.493 L243.668,105.993 L239.889,105.192 C238.944,104.992 238.277,104.147 238.303,103.181 L238.527,94.709 C238.555,93.649 239.406,92.794 240.466,92.762 L252.186,92.4 C252.721,92.384 253.227,92.153 253.592,91.761 L259.177,85.743 C259.556,85.335 260.088,85.103 260.645,85.103 L272.252,85.103 C273.314,85.103 274.176,84.242 274.176,83.179 C274.176,82.117 275.037,81.255 276.099,81.255 Z" />
        </g>
        <g id="Regular-S">
            <path d="M476.099,81.255 L484.583,81.255 C485.646,81.255 486.507,82.117 486.507,83.179 C486.507,84.242 487.368,85.103 488.431,85.103 L489.438,85.103 C490.544,85.103 491.44,85.999 491.44,87.105 L491.44,109.344 C491.44,110.449 490.544,111.345 489.438,111.345 L489.091,111.345 C488.069,111.345 487.212,112.114 487.101,113.129 L486.643,117.304 C486.56,118.065 486.917,118.806 487.564,119.215 L487.922,119.441 C488.223,119.631 488.569,119.737 488.924,119.749 L507.065,120.357 C508.144,120.393 509,121.278 509,122.357 L509,138.225 C509,138.983 508.572,139.676 507.894,140.015 L506.858,140.533 C506.58,140.672 506.274,140.745 505.962,140.745 L474.705,140.745 C474.412,140.745 474.176,140.508 474.176,140.216 C474.176,139.849 473.812,139.594 473.467,139.718 L470.953,140.626 C470.735,140.704 470.505,140.745 470.273,140.745 L424.12,140.745 C423.635,140.745 423.166,140.569 422.801,140.249 L421.683,139.271 C421.249,138.891 421,138.342 421,137.765 L421,128.954 C421,127.963 421.726,127.121 422.706,126.974 L425.903,126.497 C426.884,126.351 427.609,125.509 427.609,124.517 L427.609,119.531 C427.609,118.91 427.897,118.325 428.388,117.946 L439.34,109.493 L443.668,105.993 L439.889,105.192 C438.944,104.992 438.277,104.147 438.303,103.181 L438.527,94.709 C438.555,93.649 439.406,92.794 440.466,92.762 L452.186,92.4 C452.721,92.384 453.227,92.153 453.592,91.761 L459.177,85.743 C459.556,85.335 460.088,85.103 460.645,85.103 L472.252,85.103 C473.314,85.103 474.176,84.242 474.176,83.179 C474.176,82.117 475.037,81.255 476.099,81.255 Z" />
        </g>
        <g id="Black-S">
            <path d="M676.099,81.255 L684.583,81.255 C685.646,81.255 686.507,82.117 686.507,83.179 C686.507,84.242 687.368,85.103 688.431,85.103 L689.438,85.103 C690.544,85.103 691.44,85.999 691.44,87.105 L691.44,109.344 C691.44,110.449 690.544,111.345 689.438,111.345 L689.091,111.345 C688.069,111.345 687.212,112.114 687.101,113.129 L686.643,117.304 C686.56,118.065 686.917,118.806 687.564,119.215 L687.922,119.441 C688.223,119.631 688.569,119.737 688.924,119.749 L707.065,120.357 C708.144,120.393 709,121.278 709,122.357 L709,138.225 C709,138.983 708.572,139.676 707.894,140.015 L706.858,140.533 C706.58,140.672 706.274,140.745 705.962,140.745 L674.705,140.745 C674.412,140.745 674.176,140.508 674.176,140.216 C674.176,139.849 673.812,139.594 673.467,139.718 L670.953,140.626 C670.735,140.704 670.505,140.745 670.273,140.745 L624.12,140.745 C623.635,140.745 623.166,140.569 622.801,140.249 L621.683,139.271 C621.249,138.891 621,138.342 621,137.765 L621,128.954 C621,127.963 621.726,127.121 622.706,126.974 L625.903,126.497 C626.884,126.351 627.609,125.509 627.609,124.517 L627.609,119.531 C627.609,118.91 627.897,118.325 628.388,117.946 L639.34,109.493 L643.668,105.993 L639.889,105.192 C638.944,104.992 638.277,104.147 638.303,103.181 L638.527,94.709 C638.555,93.649 639.406,92.794 640.466,92.762 L652.186,92.4 C652.721,92.384 653.227,92.153 653.592,91.761 L659.177,85.743 C659.556,85.335 660.088,85.103 660.645,85.103 L672.252,85.103 C673.314,85.103 674.176,84.242 674.176,83.179 C674.176,82.117 675.037,81.255 676.099,81.255 Z" />
        </g>
    </g>
</svg>