<?xml version="1.0" encoding="UTF-8"?>
<svg height="600" width="800" xmlns="http://www.w3.org/2000/svg" xmlns:xlink="http://www.w3.org/1999/xlink">
    <g id="Notes" font-family="'LucidaGrande', 'Lucida Grande', sans-serif" font-size="13">
        <rect fill="white" height="600.0" width="800.0" x="0.0" y="0.0" />
        <g font-size="13">
            <text x="18.0" y="176.0">Small</text>
            <text x="18.0" y="376.0">Medium</text>
            <text x="18.0" y="576.0">Large</text>
        </g>
        <g font-size="9">
            <text x="250.0" y="30.0">Ultralight</text>
            <text x="450.0" y="30.0">Regular</text>
            <text x="650.0" y="30.0">Black</text>
            <text id="template-version" fill="#505050" text-anchor="end" x="785.0" y="575.0">Template v.3.0</text>
            <a href="https://wangchujiang.com/#/app">
                <text fill="#505050" text-anchor="end" x="785.0" y="590.0">https://wangchujiang.com/#/app</text>
            </a>
        </g>
    </g>
    <g id="Guides" stroke="rgb(39, 170, 225)" stroke-width="0.5">
        <path id="Capline-S" d="M18,76 l800,0" />
        <path id="H-reference" d="M85,145.755 L87.685,145.755 L113.369,79.287 L114.052,79.287 L114.052,76 L112.148,76 L85,145.755 Z M95.693,121.536 L130.996,121.536 L130.263,119.313 L96.474,119.313 L95.693,121.536 Z M139.15,145.755 L141.787,145.755 L114.638,76 L113.466,76 L113.466,79.287 L139.15,145.755 Z" stroke="none" />
        <path id="Baseline-S" d="M18,146 l800,0" />
        <path id="left-margin-Ultralight-S" d="M219.389,56 l0,110" />
        <path id="right-margin-Ultralight-S" d="M310.611,56 l0,110" />
        <path id="left-margin-Regular-S" d="M419.389,56 l0,110" />
        <path id="right-margin-Regular-S" d="M510.611,56 l0,110" />
        <path id="left-margin-Black-S" d="M619.389,56 l0,110" />
        <path id="right-margin-Black-S" d="M710.611,56 l0,110" />
        <path id="Capline-M" d="M18,276 l800,0" />
        <path id="Baseline-M" d="M18,346 l800,0" />
        <path id="Capline-L" d="M18,476 l800,0" />
        <path id="Baseline-L" d="M18,546 l800,0" />
    </g>
    <g id="Symbols">
        <g id="Ultralight-S">
            <path d="M300.611,131.519 L300.611,128.766 C300.611,127.688 299.887,126.743 298.845,126.463 L293.491,125.022 C293.205,124.945 292.962,124.756 292.818,124.497 C292.625,124.149 292.258,123.934 291.86,123.934 L289.718,123.934 C289.498,123.934 289.32,124.112 289.32,124.332 C289.32,124.552 289.141,124.73 288.922,124.73 L287.143,124.73 C286.891,124.73 286.668,124.57 286.588,124.332 C286.507,124.094 286.284,123.934 286.033,123.934 L285.518,123.934 C284.779,123.934 284.188,123.321 284.215,122.583 L284.572,112.793 L284.572,101.437 C284.572,101.144 284.625,100.854 284.73,100.581 L287.225,94.091 C287.585,93.154 288.493,92.543 289.496,92.562 L293.224,92.632 C294.452,92.655 295.497,91.742 295.639,90.523 L297.117,77.836 C297.133,77.701 297.133,77.565 297.116,77.431 L297.089,77.205 C297.026,76.676 296.661,76.232 296.154,76.067 C296.017,76.023 295.875,76 295.732,76 L283.427,76 C282.736,76 282.046,76.06 281.365,76.18 L280.633,76.31 C279.466,76.516 278.355,76.967 277.375,77.633 C276.592,78.165 275.904,78.826 275.342,79.588 L274.365,80.91 C273.632,81.903 273.016,82.977 272.529,84.111 C271.914,85.541 271.511,87.053 271.332,88.599 L271.189,89.835 C271.033,91.188 270.989,92.551 271.059,93.912 L271.304,98.714 C271.369,99.989 270.419,101.09 269.149,101.211 L266.792,101.436 C266.443,101.469 266.105,101.579 265.803,101.759 L265.267,102.076 C264.899,102.294 264.479,102.409 264.051,102.409 L261.782,102.409 C261.42,102.409 261.063,102.492 260.737,102.65 L258.731,103.628 C258.479,103.751 258.208,103.828 257.93,103.856 L238.605,105.842 C237.527,105.953 236.66,106.775 236.492,107.845 L235.363,115.03 C235.232,115.862 235.55,116.702 236.2,117.239 L236.74,117.685 C237.744,118.515 237.897,119.997 237.083,121.014 L236.777,121.397 L229.974,129.22 C229.597,129.654 229.389,130.21 229.389,130.786 L229.389,138.95 C229.389,139.215 229.433,139.478 229.52,139.729 L230.497,142.56 C230.687,143.11 231.072,143.572 231.578,143.859 L231.945,144.065 C232.303,144.268 232.708,144.375 233.119,144.375 L236.352,144.375 C236.633,144.375 236.912,144.424 237.176,144.522 L239.199,145.267 C239.454,145.361 239.723,145.411 239.995,145.414 L287.756,146 L297.227,145.065 C298.272,144.962 299.126,144.188 299.332,143.159 L300.564,136.996 C300.595,136.842 300.611,136.685 300.611,136.528 L300.611,131.519 Z" />
        </g>
        <g id="Regular-S">
            <path d="M500.611,131.519 L500.611,128.766 C500.611,127.688 499.887,126.743 498.845,126.463 L493.491,125.022 C493.205,124.945 492.962,124.756 492.818,124.497 C492.625,124.149 492.258,123.934 491.861,123.934 L489.718,123.934 C489.498,123.934 489.32,124.112 489.32,124.332 C489.32,124.552 489.141,124.73 488.922,124.73 L487.143,124.73 C486.891,124.73 486.668,124.57 486.588,124.332 C486.507,124.094 486.284,123.934 486.033,123.934 L485.518,123.934 C484.779,123.934 484.188,123.321 484.215,122.583 L484.572,112.793 L484.572,101.437 C484.572,101.144 484.625,100.854 484.73,100.581 L487.225,94.091 C487.585,93.154 488.493,92.543 489.496,92.562 L493.224,92.632 C494.452,92.655 495.497,91.742 495.639,90.523 L497.117,77.836 C497.133,77.701 497.133,77.565 497.116,77.431 L497.089,77.205 C497.026,76.676 496.661,76.232 496.154,76.067 C496.017,76.023 495.875,76 495.732,76 L483.427,76 C482.736,76 482.046,76.06 481.365,76.18 L480.633,76.31 C479.466,76.516 478.355,76.967 477.375,77.633 C476.592,78.165 475.904,78.826 475.342,79.588 L474.365,80.91 C473.632,81.903 473.016,82.977 472.529,84.111 C471.914,85.541 471.512,87.053 471.333,88.599 L471.189,89.835 C471.033,91.188 470.989,92.551 471.059,93.912 L471.304,98.714 C471.369,99.989 470.42,101.09 469.149,101.211 L466.792,101.436 C466.443,101.469 466.105,101.579 465.803,101.759 L465.267,102.076 C464.899,102.294 464.479,102.409 464.051,102.409 L461.782,102.409 C461.42,102.409 461.063,102.492 460.737,102.65 L458.731,103.628 C458.479,103.751 458.208,103.828 457.93,103.856 L438.605,105.842 C437.527,105.953 436.66,106.775 436.492,107.845 L435.363,115.03 C435.232,115.862 435.55,116.702 436.2,117.239 L436.74,117.685 C437.744,118.515 437.897,119.997 437.083,121.014 L436.777,121.397 L429.974,129.22 C429.597,129.654 429.389,130.21 429.389,130.786 L429.389,138.95 C429.389,139.215 429.433,139.478 429.52,139.729 L430.497,142.56 C430.687,143.11 431.072,143.572 431.578,143.859 L431.945,144.065 C432.303,144.268 432.708,144.375 433.119,144.375 L436.352,144.375 C436.633,144.375 436.912,144.424 437.176,144.522 L439.199,145.267 C439.454,145.361 439.723,145.411 439.995,145.414 L487.756,146 L497.227,145.065 C498.272,144.962 499.126,144.188 499.332,143.159 L500.564,136.996 C500.595,136.842 500.611,136.685 500.611,136.528 L500.611,131.519 Z" />
        </g>
        <g id="Black-S">
            <path d="M700.611,131.519 L700.611,128.766 C700.611,127.688 699.887,126.743 698.845,126.463 L693.491,125.022 C693.205,124.945 692.962,124.756 692.818,124.497 C692.625,124.149 692.258,123.934 691.86,123.934 L689.718,123.934 C689.498,123.934 689.32,124.112 689.32,124.332 C689.32,124.552 689.141,124.73 688.922,124.73 L687.143,124.73 C686.891,124.73 686.668,124.57 686.588,124.332 C686.507,124.094 686.284,123.934 686.033,123.934 L685.518,123.934 C684.779,123.934 684.188,123.321 684.215,122.583 L684.572,112.793 L684.572,101.437 C684.572,101.144 684.625,100.854 684.73,100.581 L687.225,94.091 C687.585,93.154 688.493,92.543 689.496,92.562 L693.224,92.632 C694.452,92.655 695.497,91.742 695.639,90.523 L697.117,77.836 C697.133,77.701 697.133,77.565 697.116,77.431 L697.089,77.205 C697.026,76.676 696.661,76.232 696.154,76.067 C696.017,76.023 695.875,76 695.732,76 L683.427,76 C682.736,76 682.046,76.06 681.365,76.18 L680.633,76.31 C679.466,76.516 678.355,76.967 677.375,77.633 C676.592,78.165 675.904,78.826 675.342,79.588 L674.365,80.91 C673.632,81.903 673.016,82.977 672.529,84.111 C671.914,85.541 671.511,87.053 671.333,88.599 L671.189,89.835 C671.033,91.188 670.989,92.551 671.059,93.912 L671.304,98.714 C671.37,99.989 670.419,101.09 669.149,101.211 L666.792,101.436 C666.443,101.469 666.105,101.579 665.803,101.759 L665.267,102.076 C664.899,102.294 664.479,102.409 664.051,102.409 L661.782,102.409 C661.42,102.409 661.063,102.492 660.737,102.65 L658.731,103.628 C658.479,103.751 658.208,103.828 657.93,103.856 L638.605,105.842 C637.527,105.953 636.66,106.775 636.492,107.845 L635.363,115.03 C635.232,115.862 635.55,116.702 636.2,117.239 L636.74,117.685 C637.744,118.515 637.897,119.997 637.083,121.014 L636.777,121.397 L629.974,129.22 C629.597,129.654 629.389,130.21 629.389,130.786 L629.389,138.95 C629.389,139.215 629.433,139.478 629.52,139.729 L630.497,142.56 C630.687,143.11 631.072,143.572 631.578,143.859 L631.945,144.065 C632.303,144.268 632.708,144.375 633.119,144.375 L636.352,144.375 C636.633,144.375 636.912,144.424 637.176,144.522 L639.199,145.267 C639.454,145.361 639.723,145.411 639.995,145.414 L687.756,146 L697.227,145.065 C698.272,144.962 699.127,144.188 699.332,143.159 L700.564,136.996 C700.595,136.842 700.611,136.685 700.611,136.528 L700.611,131.519 Z" />
        </g>
    </g>
</svg>