<?xml version="1.0" encoding="UTF-8"?>
<svg height="600" width="800" xmlns="http://www.w3.org/2000/svg" xmlns:xlink="http://www.w3.org/1999/xlink">
    <g id="Notes" font-family="'LucidaGrande', 'Lucida Grande', sans-serif" font-size="13">
        <rect fill="white" height="600.0" width="800.0" x="0.0" y="0.0" />
        <g font-size="13">
            <text x="18.0" y="176.0">Small</text>
            <text x="18.0" y="376.0">Medium</text>
            <text x="18.0" y="576.0">Large</text>
        </g>
        <g font-size="9">
            <text x="250.0" y="30.0">Ultralight</text>
            <text x="450.0" y="30.0">Regular</text>
            <text x="650.0" y="30.0">Black</text>
            <text id="template-version" fill="#505050" text-anchor="end" x="785.0" y="575.0">Template v.3.0</text>
            <a href="https://wangchujiang.com/#/app">
                <text fill="#505050" text-anchor="end" x="785.0" y="590.0">https://wangchujiang.com/#/app</text>
            </a>
        </g>
    </g>
    <g id="Guides" stroke="rgb(39, 170, 225)" stroke-width="0.5">
        <path id="Capline-S" d="M18,76 l800,0" />
        <path id="H-reference" d="M85,145.755 L87.685,145.755 L113.369,79.287 L114.052,79.287 L114.052,76 L112.148,76 L85,145.755 Z M95.693,121.536 L130.996,121.536 L130.263,119.313 L96.474,119.313 L95.693,121.536 Z M139.15,145.755 L141.787,145.755 L114.638,76 L113.466,76 L113.466,79.287 L139.15,145.755 Z" stroke="none" />
        <path id="Baseline-S" d="M18,146 l800,0" />
        <path id="left-margin-Ultralight-S" d="M211,56 l0,110" />
        <path id="right-margin-Ultralight-S" d="M319,56 l0,110" />
        <path id="left-margin-Regular-S" d="M411,56 l0,110" />
        <path id="right-margin-Regular-S" d="M519,56 l0,110" />
        <path id="left-margin-Black-S" d="M611,56 l0,110" />
        <path id="right-margin-Black-S" d="M719,56 l0,110" />
        <path id="Capline-M" d="M18,276 l800,0" />
        <path id="Baseline-M" d="M18,346 l800,0" />
        <path id="Capline-L" d="M18,476 l800,0" />
        <path id="Baseline-L" d="M18,546 l800,0" />
    </g>
    <g id="Symbols">
        <g id="Ultralight-S">
            <path d="M233.099,136.527 L291.919,136.527 C297.529,136.527 302.675,133.411 305.273,128.439 L305.601,127.812 C306.056,126.94 306.42,126.024 306.686,125.078 L309,116.848 L302.435,113.63 C300.542,112.702 298.966,111.234 297.906,109.412 C297.023,107.895 296.528,106.184 296.464,104.429 L295.819,86.586 L285.793,85.473 L257.945,85.473 L256.646,86.586 L237.43,86.586 L237.196,89.739 C236.919,93.448 236.946,97.174 237.274,100.88 L237.43,102.646 L239.38,103.295 L221,120.283 L221,123.762 C221,124.903 221.147,126.04 221.439,127.143 L221.572,127.648 C222.338,130.551 224.172,133.059 226.707,134.669 C228.618,135.883 230.835,136.527 233.099,136.527 Z" />
        </g>
        <g id="Regular-S">
            <path d="M433.099,136.527 L491.919,136.527 C497.529,136.527 502.675,133.411 505.273,128.439 L505.601,127.812 C506.056,126.94 506.42,126.024 506.686,125.078 L509,116.848 L502.435,113.63 C500.542,112.702 498.966,111.234 497.906,109.412 C497.023,107.895 496.528,106.184 496.464,104.429 L495.819,86.586 L485.793,85.473 L457.945,85.473 L456.646,86.586 L437.43,86.586 L437.196,89.739 C436.919,93.448 436.946,97.174 437.274,100.88 L437.43,102.646 L439.38,103.295 L421,120.283 L421,123.762 C421,124.903 421.147,126.04 421.439,127.143 L421.572,127.648 C422.338,130.551 424.172,133.059 426.707,134.669 C428.618,135.883 430.835,136.527 433.099,136.527 Z" />
        </g>
        <g id="Black-S">
            <path d="M633.099,136.527 L691.919,136.527 C697.529,136.527 702.675,133.411 705.273,128.439 L705.601,127.812 C706.056,126.94 706.42,126.024 706.686,125.078 L709,116.848 L702.435,113.63 C700.542,112.702 698.966,111.234 697.906,109.412 C697.023,107.895 696.528,106.184 696.464,104.429 L695.819,86.586 L685.793,85.473 L657.945,85.473 L656.646,86.586 L637.43,86.586 L637.196,89.739 C636.919,93.448 636.946,97.174 637.274,100.88 L637.43,102.646 L639.38,103.295 L621,120.283 L621,123.762 C621,124.903 621.147,126.04 621.439,127.143 L621.572,127.648 C622.338,130.551 624.172,133.059 626.707,134.669 C628.618,135.883 630.835,136.527 633.099,136.527 Z" />
        </g>
    </g>
</svg>