<?xml version="1.0" encoding="UTF-8"?>
<svg height="600" width="800" xmlns="http://www.w3.org/2000/svg" xmlns:xlink="http://www.w3.org/1999/xlink">
    <g id="Notes" font-family="'LucidaGrande', 'Lucida Grande', sans-serif" font-size="13">
        <rect fill="white" height="600.0" width="800.0" x="0.0" y="0.0" />
        <g font-size="13">
            <text x="18.0" y="176.0">Small</text>
            <text x="18.0" y="376.0">Medium</text>
            <text x="18.0" y="576.0">Large</text>
        </g>
        <g font-size="9">
            <text x="250.0" y="30.0">Ultralight</text>
            <text x="450.0" y="30.0">Regular</text>
            <text x="650.0" y="30.0">Black</text>
            <text id="template-version" fill="#505050" text-anchor="end" x="785.0" y="575.0">Template v.3.0</text>
            <a href="https://wangchujiang.com/#/app">
                <text fill="#505050" text-anchor="end" x="785.0" y="590.0">https://wangchujiang.com/#/app</text>
            </a>
        </g>
    </g>
    <g id="Guides" stroke="rgb(39, 170, 225)" stroke-width="0.5">
        <path id="Capline-S" d="M18,76 l800,0" />
        <path id="H-reference" d="M85,145.755 L87.685,145.755 L113.369,79.287 L114.052,79.287 L114.052,76 L112.148,76 L85,145.755 Z M95.693,121.536 L130.996,121.536 L130.263,119.313 L96.474,119.313 L95.693,121.536 Z M139.15,145.755 L141.787,145.755 L114.638,76 L113.466,76 L113.466,79.287 L139.15,145.755 Z" stroke="none" />
        <path id="Baseline-S" d="M18,146 l800,0" />
        <path id="left-margin-Ultralight-S" d="M211,56 l0,110" />
        <path id="right-margin-Ultralight-S" d="M319,56 l0,110" />
        <path id="left-margin-Regular-S" d="M411,56 l0,110" />
        <path id="right-margin-Regular-S" d="M519,56 l0,110" />
        <path id="left-margin-Black-S" d="M611,56 l0,110" />
        <path id="right-margin-Black-S" d="M719,56 l0,110" />
        <path id="Capline-M" d="M18,276 l800,0" />
        <path id="Baseline-M" d="M18,346 l800,0" />
        <path id="Capline-L" d="M18,476 l800,0" />
        <path id="Baseline-L" d="M18,546 l800,0" />
    </g>
    <g id="Symbols">
        <g id="Ultralight-S">
            <path d="M296.509,104.65 L301.85,104.65 C302.92,104.65 303.933,105.129 304.613,105.955 C304.898,106.3 305.114,106.696 305.253,107.122 L307.694,114.615 C307.933,115.35 308.093,116.108 308.172,116.876 L308.943,124.348 C309.065,125.538 308.991,126.74 308.724,127.906 L306.929,135.741 C306.819,136.221 306.663,136.689 306.463,137.139 C305.561,139.167 303.825,140.703 301.703,141.351 L300.261,141.791 C299.228,142.106 298.154,142.266 297.074,142.266 L231.366,142.266 C230.478,142.266 229.594,142.144 228.74,141.902 L227.604,141.581 C225.985,141.123 224.598,140.069 223.725,138.63 C223.414,138.119 223.174,137.568 223.011,136.993 L221.415,131.368 C221.14,130.399 221,129.395 221,128.387 L221,115.811 C221,112.994 222.088,110.286 224.038,108.253 L227.155,105.003 C228.06,104.059 229.127,103.286 230.305,102.719 L277.89,79.842 C278.412,79.591 279.04,79.792 279.32,80.299 L288.491,96.948 C288.625,97.191 288.88,97.342 289.158,97.342 C289.471,97.342 289.751,97.533 289.866,97.823 L291.126,100.996 C292.002,103.202 294.136,104.65 296.509,104.65 Z" />
        </g>
        <g id="Regular-S">
            <path d="M496.509,104.65 L501.85,104.65 C502.92,104.65 503.933,105.129 504.613,105.955 C504.898,106.3 505.114,106.696 505.253,107.122 L507.694,114.615 C507.933,115.35 508.093,116.108 508.172,116.876 L508.943,124.348 C509.065,125.538 508.991,126.74 508.724,127.906 L506.929,135.741 C506.819,136.221 506.663,136.689 506.463,137.139 C505.561,139.167 503.825,140.703 501.703,141.351 L500.261,141.791 C499.228,142.106 498.154,142.266 497.074,142.266 L431.366,142.266 C430.478,142.266 429.594,142.144 428.74,141.902 L427.604,141.581 C425.985,141.123 424.598,140.069 423.725,138.63 C423.414,138.119 423.174,137.568 423.011,136.993 L421.415,131.368 C421.14,130.399 421,129.395 421,128.387 L421,115.811 C421,112.994 422.088,110.286 424.038,108.253 L427.155,105.003 C428.06,104.059 429.127,103.286 430.305,102.719 L477.89,79.842 C478.412,79.591 479.04,79.792 479.32,80.299 L488.491,96.948 C488.625,97.191 488.88,97.342 489.158,97.342 C489.471,97.342 489.751,97.533 489.866,97.823 L491.126,100.996 C492.002,103.202 494.136,104.65 496.509,104.65 Z" />
        </g>
        <g id="Black-S">
            <path d="M696.509,104.65 L701.85,104.65 C702.92,104.65 703.933,105.129 704.613,105.955 C704.898,106.3 705.114,106.696 705.253,107.122 L707.694,114.615 C707.933,115.35 708.093,116.108 708.172,116.876 L708.943,124.348 C709.065,125.538 708.991,126.74 708.724,127.906 L706.929,135.741 C706.819,136.221 706.663,136.689 706.463,137.139 C705.561,139.167 703.825,140.703 701.703,141.351 L700.261,141.791 C699.228,142.106 698.154,142.266 697.074,142.266 L631.366,142.266 C630.478,142.266 629.594,142.144 628.74,141.902 L627.604,141.581 C625.985,141.123 624.598,140.069 623.725,138.63 C623.414,138.119 623.174,137.568 623.011,136.993 L621.415,131.368 C621.14,130.399 621,129.395 621,128.387 L621,115.811 C621,112.994 622.089,110.286 624.038,108.253 L627.155,105.003 C628.06,104.059 629.127,103.286 630.305,102.719 L677.89,79.842 C678.412,79.591 679.04,79.792 679.32,80.299 L688.491,96.948 C688.625,97.191 688.88,97.342 689.158,97.342 C689.471,97.342 689.751,97.533 689.866,97.823 L691.126,100.996 C692.002,103.202 694.136,104.65 696.509,104.65 Z" />
        </g>
    </g>
</svg>