<?xml version="1.0" encoding="UTF-8"?>
<svg height="600" width="800" xmlns="http://www.w3.org/2000/svg" xmlns:xlink="http://www.w3.org/1999/xlink">
    <g id="Notes" font-family="'LucidaGrande', 'Lucida Grande', sans-serif" font-size="13">
        <rect fill="white" height="600.0" width="800.0" x="0.0" y="0.0" />
        <g font-size="13">
            <text x="18.0" y="176.0">Small</text>
            <text x="18.0" y="376.0">Medium</text>
            <text x="18.0" y="576.0">Large</text>
        </g>
        <g font-size="9">
            <text x="250.0" y="30.0">Ultralight</text>
            <text x="450.0" y="30.0">Regular</text>
            <text x="650.0" y="30.0">Black</text>
            <text id="template-version" fill="#505050" text-anchor="end" x="785.0" y="575.0">Template v.3.0</text>
            <a href="https://wangchujiang.com/#/app">
                <text fill="#505050" text-anchor="end" x="785.0" y="590.0">https://wangchujiang.com/#/app</text>
            </a>
        </g>
    </g>
    <g id="Guides" stroke="rgb(39, 170, 225)" stroke-width="0.5">
        <path id="Capline-S" d="M18,76 l800,0" />
        <path id="H-reference" d="M85,145.755 L87.685,145.755 L113.369,79.287 L114.052,79.287 L114.052,76 L112.148,76 L85,145.755 Z M95.693,121.536 L130.996,121.536 L130.263,119.313 L96.474,119.313 L95.693,121.536 Z M139.15,145.755 L141.787,145.755 L114.638,76 L113.466,76 L113.466,79.287 L139.15,145.755 Z" stroke="none" />
        <path id="Baseline-S" d="M18,146 l800,0" />
        <path id="left-margin-Ultralight-S" d="M211,56 l0,110" />
        <path id="right-margin-Ultralight-S" d="M319,56 l0,110" />
        <path id="left-margin-Regular-S" d="M411,56 l0,110" />
        <path id="right-margin-Regular-S" d="M519,56 l0,110" />
        <path id="left-margin-Black-S" d="M611,56 l0,110" />
        <path id="right-margin-Black-S" d="M719,56 l0,110" />
        <path id="Capline-M" d="M18,276 l800,0" />
        <path id="Baseline-M" d="M18,346 l800,0" />
        <path id="Capline-L" d="M18,476 l800,0" />
        <path id="Baseline-L" d="M18,546 l800,0" />
    </g>
    <g id="Symbols">
        <g id="Ultralight-S">
            <path d="M231.549,109.715 L224.448,110.554 C223.455,110.672 222.545,111.165 221.905,111.933 C221.278,112.686 220.957,113.647 221.005,114.626 L221.683,128.414 C221.706,128.893 221.863,129.355 222.136,129.749 C222.616,130.442 223.405,130.856 224.248,130.856 L246.451,130.856 C247.139,130.856 247.82,130.725 248.458,130.469 C249.122,130.204 249.832,130.073 250.548,130.083 L299.474,130.834 C300.368,130.848 301.225,130.48 301.831,129.824 C302.239,129.382 302.512,128.831 302.616,128.239 L303.672,122.26 C303.913,120.893 304.034,119.507 304.034,118.118 L304.034,115.757 C304.034,111.332 305.065,106.967 307.044,103.009 L308.695,99.705 C309.075,98.946 309.101,98.058 308.766,97.279 C308.361,96.331 307.48,95.672 306.456,95.55 L270.69,91.301 C269.08,91.11 267.454,91.093 265.841,91.252 C261.34,91.696 257.078,93.49 253.615,96.397 L248.281,100.875 L242.06,105.522 C238.986,107.819 235.36,109.265 231.549,109.715 Z" />
        </g>
        <g id="Regular-S">
            <path d="M431.549,109.715 L424.448,110.554 C423.455,110.672 422.545,111.165 421.905,111.933 C421.278,112.686 420.957,113.647 421.005,114.626 L421.683,128.414 C421.706,128.893 421.863,129.355 422.136,129.749 C422.616,130.442 423.405,130.856 424.248,130.856 L446.451,130.856 C447.139,130.856 447.82,130.725 448.458,130.469 C449.122,130.204 449.832,130.073 450.548,130.083 L499.474,130.834 C500.368,130.848 501.225,130.48 501.831,129.824 C502.239,129.382 502.512,128.831 502.616,128.239 L503.672,122.26 C503.913,120.893 504.034,119.507 504.034,118.118 L504.034,115.757 C504.034,111.332 505.065,106.967 507.044,103.009 L508.695,99.705 C509.075,98.946 509.101,98.058 508.766,97.279 C508.361,96.331 507.48,95.672 506.456,95.55 L470.69,91.301 C469.08,91.11 467.454,91.093 465.841,91.252 C461.34,91.696 457.078,93.49 453.615,96.397 L448.281,100.875 L442.06,105.522 C438.986,107.819 435.36,109.265 431.549,109.715 Z" />
        </g>
        <g id="Black-S">
            <path d="M631.549,109.715 L624.448,110.554 C623.456,110.672 622.545,111.165 621.905,111.933 C621.278,112.686 620.957,113.647 621.005,114.626 L621.683,128.414 C621.706,128.893 621.864,129.355 622.136,129.749 C622.616,130.442 623.405,130.856 624.248,130.856 L646.451,130.856 C647.139,130.856 647.82,130.725 648.458,130.469 C649.122,130.204 649.833,130.073 650.548,130.083 L699.474,130.834 C700.368,130.848 701.225,130.48 701.831,129.824 C702.239,129.382 702.512,128.831 702.616,128.239 L703.672,122.26 C703.913,120.893 704.034,119.507 704.034,118.118 L704.034,115.757 C704.034,111.332 705.065,106.967 707.044,103.009 L708.695,99.705 C709.075,98.946 709.101,98.058 708.766,97.279 C708.361,96.331 707.48,95.672 706.456,95.55 L670.69,91.301 C669.08,91.11 667.454,91.093 665.841,91.252 C661.34,91.696 657.078,93.49 653.615,96.397 L648.281,100.875 L642.06,105.522 C638.986,107.819 635.36,109.265 631.549,109.715 Z" />
        </g>
    </g>
</svg>