<?xml version="1.0" encoding="UTF-8"?>
<svg height="600" width="800" xmlns="http://www.w3.org/2000/svg" xmlns:xlink="http://www.w3.org/1999/xlink">
    <g id="Notes" font-family="'LucidaGrande', 'Lucida Grande', sans-serif" font-size="13">
        <rect fill="white" height="600.0" width="800.0" x="0.0" y="0.0" />
        <g font-size="13">
            <text x="18.0" y="176.0">Small</text>
            <text x="18.0" y="376.0">Medium</text>
            <text x="18.0" y="576.0">Large</text>
        </g>
        <g font-size="9">
            <text x="250.0" y="30.0">Ultralight</text>
            <text x="450.0" y="30.0">Regular</text>
            <text x="650.0" y="30.0">Black</text>
            <text id="template-version" fill="#505050" text-anchor="end" x="785.0" y="575.0">Template v.3.0</text>
            <a href="https://wangchujiang.com/#/app">
                <text fill="#505050" text-anchor="end" x="785.0" y="590.0">https://wangchujiang.com/#/app</text>
            </a>
        </g>
    </g>
    <g id="Guides" stroke="rgb(39, 170, 225)" stroke-width="0.5">
        <path id="Capline-S" d="M18,76 l800,0" />
        <path id="H-reference" d="M85,145.755 L87.685,145.755 L113.369,79.287 L114.052,79.287 L114.052,76 L112.148,76 L85,145.755 Z M95.693,121.536 L130.996,121.536 L130.263,119.313 L96.474,119.313 L95.693,121.536 Z M139.15,145.755 L141.787,145.755 L114.638,76 L113.466,76 L113.466,79.287 L139.15,145.755 Z" stroke="none" />
        <path id="Baseline-S" d="M18,146 l800,0" />
        <path id="left-margin-Ultralight-S" d="M221,56 l0,110" />
        <path id="right-margin-Ultralight-S" d="M309,56 l0,110" />
        <path id="left-margin-Regular-S" d="M421,56 l0,110" />
        <path id="right-margin-Regular-S" d="M509,56 l0,110" />
        <path id="left-margin-Black-S" d="M621,56 l0,110" />
        <path id="right-margin-Black-S" d="M709,56 l0,110" />
        <path id="Capline-M" d="M18,276 l800,0" />
        <path id="Baseline-M" d="M18,346 l800,0" />
        <path id="Capline-L" d="M18,476 l800,0" />
        <path id="Baseline-L" d="M18,546 l800,0" />
    </g>
    <g id="Symbols">
        <g id="Ultralight-S">
            <path d="M296.395,76 C296.604,76 296.773,76.171 296.77,76.381 L296.041,131.455 C296.038,131.66 295.871,131.825 295.665,131.825 L293.551,131.825 C293.51,131.825 293.469,131.819 293.431,131.805 L293.305,131.763 L292.609,132.82 L292.145,138.657 L276.647,138.888 L276.647,140.666 L275.874,142.251 L275.642,144.261 L274.173,144.261 L273.594,144.918 L273.594,146 L263.467,146 L263.467,144.261 L263.892,140.28 L260.839,138.657 L260.839,136.183 L260.143,135.912 L238.769,135.487 L239.813,133.709 L239.813,132.936 L239.426,132.666 L239.426,131.584 L238.769,131.584 L238.405,108.846 C238.342,108.862 238.277,108.869 238.212,108.862 L237.342,108.772 C237.044,108.741 236.802,108.519 236.744,108.225 C236.63,107.635 235.864,107.472 235.519,107.963 L235.213,108.399 C235.072,108.6 234.843,108.719 234.598,108.719 L234.447,108.719 C234.11,108.719 233.814,108.495 233.724,108.17 L233.258,106.504 C233.239,106.438 233.23,106.37 233.23,106.302 L233.23,101.251 L233.798,96.482 C233.844,96.104 234.164,95.82 234.544,95.819 L234.954,95.819 C235.207,95.819 235.443,95.947 235.582,96.158 L235.809,96.506 C236.151,97.026 236.942,96.921 237.136,96.33 L237.166,96.236 C237.248,95.987 237.48,95.819 237.741,95.819 C237.925,95.819 238.089,95.904 238.2,96.034 L238.042,86.144 L241.53,86.144 L241.53,85.757 L244.358,85.757 C244.778,85.757 245.309,86.684 245.521,87.147 L245.521,89.734 L246.437,88.997 C246.624,88.847 246.902,88.907 247.009,89.122 L247.59,90.285 C247.708,90.52 248.024,90.565 248.202,90.371 L249.636,88.819 C249.804,88.636 250.101,88.665 250.232,88.877 L251.125,90.33 C251.259,90.547 251.567,90.571 251.732,90.376 L252.996,88.882 C253.169,88.678 253.493,88.714 253.616,88.95 L254.271,90.201 C254.404,90.456 254.763,90.473 254.919,90.231 L255.795,88.879 C255.965,88.618 256.36,88.663 256.465,88.956 L256.65,89.473 C256.751,89.755 257.125,89.811 257.304,89.572 L258.095,88.518 C258.269,88.285 258.63,88.331 258.742,88.599 L259.03,89.289 C259.159,89.598 259.597,89.596 259.724,89.286 L260.21,88.096 C260.325,87.813 260.711,87.779 260.875,88.036 L261.247,88.623 C261.415,88.887 261.814,88.842 261.918,88.546 L262.274,87.544 C262.368,87.278 262.711,87.206 262.903,87.413 L263.219,87.754 C263.451,88.004 263.871,87.84 263.871,87.498 L263.871,86.956 C263.871,86.629 264.259,86.458 264.5,86.678 L264.916,87.059 C265.157,87.28 265.545,87.109 265.545,86.782 L265.545,86.04 C265.545,85.743 265.873,85.564 266.123,85.723 L267.186,86.402 C267.399,86.537 267.681,86.429 267.75,86.187 L268.14,84.812 C268.212,84.558 268.516,84.456 268.727,84.614 L269.917,85.506 C270.107,85.649 270.381,85.582 270.482,85.367 L271.379,83.474 C271.473,83.276 271.716,83.2 271.906,83.309 L273.306,84.113 C273.476,84.21 273.693,84.16 273.803,83.998 L275.044,82.178 C275.159,82.009 275.388,81.963 275.559,82.074 L277.185,83.128 C277.346,83.232 277.561,83.198 277.681,83.049 L279.314,81.024 C279.433,80.876 279.644,80.84 279.805,80.94 L281.795,82.172 C281.97,82.28 282.199,82.228 282.31,82.054 L283.656,79.939 C283.759,79.778 283.965,79.719 284.137,79.802 L286.442,80.922 C286.6,80.999 286.789,80.956 286.899,80.82 L288.518,78.815 C288.572,78.748 288.601,78.665 288.601,78.579 L288.601,77.138 C288.601,76.974 288.707,76.829 288.863,76.779 L291.257,76.018 C291.293,76.006 291.332,76 291.37,76 L296.395,76 Z M247.349,118.488 C247.248,118.271 246.972,118.201 246.781,118.346 L246.141,118.831 C245.96,118.968 245.698,118.913 245.587,118.715 L245.521,118.597 L245.521,126.537 L245.104,127.599 L278.299,127.383 L278.463,126.123 L278.04,126.64 C277.907,126.803 277.665,126.825 277.505,126.688 L275.592,125.052 C275.414,124.9 275.142,124.946 275.024,125.148 L274.246,126.477 C274.115,126.701 273.801,126.728 273.634,126.529 L272.099,124.704 C271.945,124.521 271.662,124.527 271.515,124.715 L270.464,126.062 C270.324,126.242 270.056,126.256 269.898,126.092 L268.176,124.31 C268.011,124.139 267.731,124.162 267.596,124.358 L266.853,125.437 C266.715,125.637 266.427,125.656 266.265,125.476 L264.848,123.911 C264.715,123.765 264.491,123.746 264.336,123.869 L262.955,124.962 C262.784,125.097 262.535,125.059 262.412,124.88 L261.08,122.943 C260.949,122.753 260.681,122.724 260.513,122.881 L259.282,124.032 C259.107,124.195 258.826,124.155 258.703,123.95 L257.55,122.028 C257.437,121.84 257.188,121.788 257.009,121.916 L255.667,122.874 C255.485,123.004 255.232,122.948 255.122,122.754 L253.959,120.703 C253.854,120.518 253.616,120.457 253.435,120.568 L251.974,121.468 C251.788,121.582 251.545,121.515 251.444,121.322 L250.496,119.512 C250.383,119.297 250.099,119.244 249.916,119.403 L248.764,120.405 C248.575,120.57 248.281,120.507 248.176,120.279 L247.349,118.488 Z" />
        </g>
        <g id="Regular-S">
            <path d="M496.394,76 C496.604,76 496.773,76.171 496.77,76.381 L496.041,131.455 C496.038,131.66 495.871,131.825 495.665,131.825 L493.551,131.825 C493.51,131.825 493.469,131.819 493.431,131.805 L493.305,131.763 L492.609,132.82 L492.145,138.657 L476.647,138.888 L476.647,140.666 L475.874,142.251 L475.642,144.261 L474.173,144.261 L473.594,144.918 L473.594,146 L463.467,146 L463.467,144.261 L463.892,140.28 L460.839,138.657 L460.839,136.183 L460.143,135.912 L438.769,135.487 L439.813,133.709 L439.813,132.936 L439.426,132.666 L439.426,131.584 L438.769,131.584 L438.405,108.846 C438.342,108.862 438.277,108.869 438.212,108.862 L437.342,108.772 C437.044,108.741 436.801,108.519 436.744,108.225 C436.63,107.635 435.864,107.472 435.519,107.963 L435.213,108.399 C435.072,108.6 434.843,108.719 434.598,108.719 L434.447,108.719 C434.11,108.719 433.814,108.495 433.724,108.17 L433.258,106.504 C433.239,106.438 433.23,106.37 433.23,106.302 L433.23,101.251 L433.798,96.482 C433.844,96.104 434.164,95.82 434.544,95.819 L434.954,95.819 C435.207,95.819 435.443,95.947 435.582,96.158 L435.809,96.506 C436.151,97.026 436.942,96.921 437.136,96.33 L437.166,96.236 C437.248,95.987 437.48,95.819 437.741,95.819 C437.925,95.819 438.089,95.904 438.2,96.034 L438.042,86.144 L441.53,86.144 L441.53,85.757 L444.358,85.757 C444.778,85.757 445.309,86.684 445.521,87.147 L445.521,89.734 L446.437,88.997 C446.624,88.847 446.902,88.907 447.009,89.122 L447.59,90.285 C447.708,90.52 448.024,90.565 448.202,90.371 L449.636,88.819 C449.804,88.636 450.101,88.665 450.232,88.877 L451.125,90.33 C451.259,90.547 451.567,90.571 451.732,90.376 L452.996,88.882 C453.169,88.678 453.493,88.714 453.616,88.95 L454.271,90.201 C454.404,90.456 454.763,90.473 454.919,90.231 L455.795,88.879 C455.964,88.618 456.36,88.663 456.465,88.956 L456.65,89.473 C456.751,89.755 457.125,89.811 457.304,89.572 L458.095,88.518 C458.269,88.285 458.63,88.331 458.742,88.599 L459.03,89.289 C459.159,89.598 459.597,89.596 459.724,89.286 L460.21,88.096 C460.325,87.813 460.711,87.779 460.875,88.036 L461.247,88.623 C461.415,88.887 461.814,88.842 461.918,88.546 L462.274,87.544 C462.368,87.278 462.711,87.206 462.903,87.413 L463.219,87.754 C463.451,88.004 463.87,87.84 463.871,87.498 L463.871,86.956 C463.871,86.629 464.259,86.458 464.5,86.678 L464.916,87.059 C465.157,87.28 465.545,87.109 465.545,86.782 L465.545,86.04 C465.545,85.743 465.873,85.564 466.123,85.723 L467.186,86.402 C467.399,86.537 467.681,86.429 467.75,86.187 L468.14,84.812 C468.212,84.558 468.516,84.456 468.727,84.614 L469.917,85.506 C470.107,85.649 470.381,85.582 470.482,85.367 L471.379,83.474 C471.473,83.276 471.716,83.2 471.906,83.309 L473.306,84.113 C473.476,84.21 473.693,84.16 473.803,83.998 L475.044,82.178 C475.159,82.009 475.388,81.963 475.559,82.074 L477.185,83.128 C477.346,83.232 477.561,83.198 477.681,83.049 L479.314,81.024 C479.433,80.876 479.643,80.84 479.805,80.94 L481.795,82.172 C481.97,82.28 482.199,82.228 482.309,82.054 L483.656,79.939 C483.759,79.778 483.965,79.719 484.137,79.802 L486.442,80.922 C486.6,80.999 486.789,80.956 486.899,80.82 L488.518,78.815 C488.572,78.748 488.601,78.665 488.601,78.579 L488.601,77.138 C488.601,76.974 488.707,76.829 488.863,76.779 L491.257,76.018 C491.293,76.006 491.332,76 491.37,76 L496.394,76 Z M447.349,118.488 C447.248,118.271 446.972,118.201 446.781,118.346 L446.141,118.831 C445.96,118.968 445.698,118.913 445.587,118.715 L445.521,118.597 L445.521,126.537 L445.104,127.599 L478.299,127.383 L478.463,126.123 L478.04,126.64 C477.907,126.803 477.665,126.825 477.505,126.688 L475.592,125.052 C475.414,124.9 475.142,124.946 475.024,125.148 L474.246,126.477 C474.115,126.701 473.801,126.728 473.634,126.529 L472.099,124.704 C471.945,124.521 471.662,124.527 471.515,124.715 L470.464,126.062 C470.324,126.242 470.056,126.256 469.898,126.092 L468.176,124.31 C468.011,124.139 467.731,124.162 467.596,124.358 L466.852,125.437 C466.715,125.637 466.427,125.656 466.265,125.476 L464.847,123.911 C464.715,123.765 464.491,123.746 464.336,123.869 L462.955,124.962 C462.784,125.097 462.535,125.059 462.412,124.88 L461.08,122.943 C460.949,122.753 460.681,122.724 460.513,122.881 L459.282,124.032 C459.107,124.195 458.826,124.155 458.703,123.95 L457.55,122.028 C457.437,121.84 457.188,121.788 457.009,121.916 L455.667,122.874 C455.485,123.004 455.232,122.948 455.122,122.754 L453.959,120.703 C453.854,120.518 453.616,120.457 453.435,120.568 L451.974,121.468 C451.788,121.582 451.545,121.515 451.444,121.322 L450.496,119.512 C450.383,119.297 450.099,119.244 449.916,119.403 L448.764,120.405 C448.575,120.57 448.281,120.507 448.176,120.279 L447.349,118.488 Z" />
        </g>
        <g id="Black-S">
            <path d="M696.395,76 C696.604,76 696.773,76.171 696.77,76.381 L696.041,131.455 C696.038,131.66 695.871,131.825 695.665,131.825 L693.551,131.825 C693.51,131.825 693.469,131.819 693.431,131.805 L693.305,131.763 L692.609,132.82 L692.145,138.657 L676.647,138.888 L676.647,140.666 L675.874,142.251 L675.642,144.261 L674.173,144.261 L673.594,144.918 L673.594,146 L663.467,146 L663.467,144.261 L663.892,140.28 L660.839,138.657 L660.839,136.183 L660.143,135.912 L638.769,135.487 L639.813,133.709 L639.813,132.936 L639.426,132.666 L639.426,131.584 L638.769,131.584 L638.405,108.846 C638.342,108.862 638.277,108.869 638.212,108.862 L637.342,108.772 C637.044,108.741 636.802,108.519 636.744,108.225 C636.63,107.635 635.864,107.472 635.519,107.963 L635.213,108.399 C635.072,108.6 634.843,108.719 634.598,108.719 L634.447,108.719 C634.11,108.719 633.814,108.495 633.724,108.17 L633.258,106.504 C633.239,106.438 633.23,106.37 633.23,106.302 L633.23,101.251 L633.798,96.482 C633.844,96.104 634.164,95.82 634.544,95.819 L634.954,95.819 C635.207,95.819 635.443,95.947 635.582,96.158 L635.809,96.506 C636.151,97.026 636.942,96.921 637.136,96.33 L637.166,96.236 C637.248,95.987 637.48,95.819 637.741,95.819 C637.925,95.819 638.089,95.904 638.2,96.034 L638.042,86.144 L641.53,86.144 L641.53,85.757 L644.358,85.757 C644.778,85.757 645.309,86.684 645.521,87.147 L645.521,89.734 L646.437,88.997 C646.624,88.847 646.902,88.907 647.009,89.122 L647.59,90.285 C647.708,90.52 648.024,90.565 648.202,90.371 L649.636,88.819 C649.804,88.636 650.101,88.665 650.232,88.877 L651.125,90.33 C651.259,90.547 651.567,90.571 651.732,90.376 L652.996,88.882 C653.169,88.678 653.493,88.714 653.616,88.95 L654.271,90.201 C654.404,90.456 654.763,90.473 654.919,90.231 L655.795,88.879 C655.965,88.618 656.36,88.663 656.465,88.956 L656.65,89.473 C656.751,89.755 657.125,89.811 657.304,89.572 L658.095,88.518 C658.269,88.285 658.63,88.331 658.742,88.599 L659.03,89.289 C659.159,89.598 659.597,89.596 659.724,89.286 L660.21,88.096 C660.325,87.813 660.711,87.779 660.875,88.036 L661.247,88.623 C661.415,88.887 661.814,88.842 661.918,88.546 L662.274,87.544 C662.368,87.278 662.711,87.206 662.903,87.413 L663.219,87.754 C663.451,88.004 663.871,87.84 663.871,87.498 L663.871,86.956 C663.871,86.629 664.259,86.458 664.5,86.678 L664.916,87.059 C665.157,87.28 665.545,87.109 665.545,86.782 L665.545,86.04 C665.545,85.743 665.873,85.564 666.123,85.723 L667.187,86.402 C667.399,86.537 667.681,86.429 667.75,86.187 L668.14,84.812 C668.212,84.558 668.516,84.456 668.727,84.614 L669.917,85.506 C670.107,85.649 670.381,85.582 670.482,85.367 L671.379,83.474 C671.473,83.276 671.716,83.2 671.906,83.309 L673.306,84.113 C673.476,84.21 673.693,84.16 673.803,83.998 L675.044,82.178 C675.159,82.009 675.388,81.963 675.559,82.074 L677.185,83.128 C677.346,83.232 677.561,83.198 677.681,83.049 L679.314,81.024 C679.433,80.876 679.644,80.84 679.805,80.94 L681.795,82.172 C681.97,82.28 682.199,82.228 682.31,82.054 L683.656,79.939 C683.759,79.778 683.965,79.719 684.137,79.802 L686.442,80.922 C686.6,80.999 686.79,80.956 686.899,80.82 L688.518,78.815 C688.572,78.748 688.601,78.665 688.601,78.579 L688.601,77.138 C688.601,76.974 688.707,76.829 688.863,76.779 L691.257,76.018 C691.293,76.006 691.332,76 691.37,76 L696.395,76 Z M647.349,118.488 C647.248,118.271 646.972,118.201 646.781,118.346 L646.141,118.831 C645.96,118.968 645.698,118.913 645.587,118.715 L645.521,118.597 L645.521,126.537 L645.104,127.599 L678.299,127.383 L678.463,126.123 L678.04,126.64 C677.907,126.803 677.665,126.825 677.505,126.688 L675.592,125.052 C675.414,124.9 675.142,124.946 675.024,125.148 L674.246,126.477 C674.115,126.701 673.801,126.728 673.634,126.529 L672.099,124.704 C671.945,124.521 671.662,124.527 671.515,124.715 L670.464,126.062 C670.324,126.242 670.056,126.256 669.898,126.092 L668.176,124.31 C668.011,124.139 667.731,124.162 667.596,124.358 L666.853,125.437 C666.715,125.637 666.427,125.656 666.265,125.476 L664.848,123.911 C664.715,123.765 664.491,123.746 664.336,123.869 L662.955,124.962 C662.784,125.097 662.535,125.059 662.412,124.88 L661.08,122.943 C660.949,122.753 660.681,122.724 660.513,122.881 L659.282,124.032 C659.107,124.195 658.826,124.155 658.703,123.95 L657.55,122.028 C657.437,121.84 657.188,121.788 657.009,121.916 L655.667,122.874 C655.485,123.004 655.232,122.948 655.122,122.754 L653.959,120.703 C653.854,120.518 653.616,120.457 653.435,120.568 L651.974,121.468 C651.788,121.582 651.545,121.515 651.444,121.322 L650.496,119.512 C650.383,119.297 650.099,119.244 649.916,119.403 L648.764,120.405 C648.575,120.57 648.281,120.507 648.176,120.279 L647.349,118.488 Z" />
        </g>
    </g>
</svg>