<?xml version="1.0" encoding="UTF-8"?>
<svg height="600" width="800" xmlns="http://www.w3.org/2000/svg" xmlns:xlink="http://www.w3.org/1999/xlink">
    <g id="Notes" font-family="'LucidaGrande', 'Lucida Grande', sans-serif" font-size="13">
        <rect fill="white" height="600.0" width="800.0" x="0.0" y="0.0" />
        <g font-size="13">
            <text x="18.0" y="176.0">Small</text>
            <text x="18.0" y="376.0">Medium</text>
            <text x="18.0" y="576.0">Large</text>
        </g>
        <g font-size="9">
            <text x="250.0" y="30.0">Ultralight</text>
            <text x="450.0" y="30.0">Regular</text>
            <text x="650.0" y="30.0">Black</text>
            <text id="template-version" fill="#505050" text-anchor="end" x="785.0" y="575.0">Template v.3.0</text>
            <a href="https://wangchujiang.com/#/app">
                <text fill="#505050" text-anchor="end" x="785.0" y="590.0">https://wangchujiang.com/#/app</text>
            </a>
        </g>
    </g>
    <g id="Guides" stroke="rgb(39, 170, 225)" stroke-width="0.5">
        <path id="Capline-S" d="M18,76 l800,0" />
        <path id="H-reference" d="M85,145.755 L87.685,145.755 L113.369,79.287 L114.052,79.287 L114.052,76 L112.148,76 L85,145.755 Z M95.693,121.536 L130.996,121.536 L130.263,119.313 L96.474,119.313 L95.693,121.536 Z M139.15,145.755 L141.787,145.755 L114.638,76 L113.466,76 L113.466,79.287 L139.15,145.755 Z" stroke="none" />
        <path id="Baseline-S" d="M18,146 l800,0" />
        <path id="left-margin-Ultralight-S" d="M211,56 l0,110" />
        <path id="right-margin-Ultralight-S" d="M319,56 l0,110" />
        <path id="left-margin-Regular-S" d="M411,56 l0,110" />
        <path id="right-margin-Regular-S" d="M519,56 l0,110" />
        <path id="left-margin-Black-S" d="M611,56 l0,110" />
        <path id="right-margin-Black-S" d="M719,56 l0,110" />
        <path id="Capline-M" d="M18,276 l800,0" />
        <path id="Baseline-M" d="M18,346 l800,0" />
        <path id="Capline-L" d="M18,476 l800,0" />
        <path id="Baseline-L" d="M18,546 l800,0" />
    </g>
    <g id="Symbols">
        <g id="Ultralight-S">
            <path d="M302.307,84.582 L307.834,86.606 C308.534,86.863 309,87.53 309,88.276 C309,88.463 308.97,88.648 308.913,88.826 L302.34,109.032 C302.248,109.312 302.092,109.567 301.883,109.776 L301.51,110.149 C301.234,110.424 300.88,110.607 300.495,110.671 L299.601,110.82 C299.124,110.9 298.697,111.161 298.408,111.549 L297.313,113.022 C297.169,113.215 297.189,113.484 297.359,113.654 C297.482,113.777 297.53,113.957 297.483,114.125 L297.267,114.91 C297.14,115.368 297.262,115.86 297.589,116.205 C297.916,116.551 298.038,117.043 297.911,117.501 L294.566,129.612 C294.539,129.711 294.525,129.814 294.525,129.917 C294.525,130.549 295.038,131.062 295.67,131.062 L302.671,131.062 C303.659,131.062 304.476,131.83 304.537,132.817 L304.674,135.032 C304.714,135.681 305.088,136.262 305.66,136.567 L306.29,136.903 C307.022,137.293 307.409,138.119 307.242,138.931 L307.213,139.073 C307.133,139.458 306.934,139.809 306.644,140.075 L306.135,140.542 C305.793,140.855 305.349,141.03 304.887,141.034 L223.402,141.761 C222.748,141.767 222.135,141.424 221.791,140.868 C221.63,140.609 221.533,140.311 221.512,140.007 L221.004,132.544 C220.993,132.382 221.003,132.219 221.035,132.059 L221.412,130.126 C221.497,129.691 221.734,129.3 222.08,129.024 L222.518,128.673 C222.693,128.533 222.891,128.426 223.104,128.356 L226.256,127.323 C226.456,127.257 226.644,127.158 226.811,127.03 L264.01,98.542 L254.704,98.303 C254.386,98.295 254.075,98.206 253.801,98.044 L252.853,97.484 C252.543,97.301 252.292,97.032 252.131,96.71 L251.583,95.613 L251.101,94.53 C250.978,94.252 250.924,93.948 250.944,93.645 L251.56,84.441 C251.575,84.22 251.55,83.998 251.487,83.785 L251.329,83.251 C251.085,82.427 251.434,81.542 252.176,81.106 L253.218,80.496 C253.645,80.246 254.154,80.175 254.633,80.299 L275.321,85.658 L291.665,92.184 C292.364,92.463 293.162,92.296 293.69,91.761 L300.332,85.025 C300.846,84.503 301.618,84.329 302.307,84.582 Z" />
        </g>
        <g id="Regular-S">
            <path d="M502.307,84.582 L507.834,86.606 C508.534,86.863 509,87.53 509,88.276 C509,88.463 508.97,88.648 508.913,88.826 L502.34,109.032 C502.248,109.312 502.092,109.567 501.883,109.776 L501.51,110.149 C501.234,110.424 500.88,110.607 500.495,110.671 L499.601,110.82 C499.124,110.9 498.697,111.161 498.408,111.549 L497.313,113.022 C497.169,113.215 497.189,113.484 497.359,113.654 C497.482,113.777 497.53,113.957 497.483,114.125 L497.267,114.91 C497.14,115.368 497.262,115.86 497.589,116.205 C497.916,116.551 498.038,117.043 497.911,117.501 L494.566,129.612 C494.539,129.711 494.525,129.814 494.525,129.917 C494.525,130.549 495.038,131.062 495.67,131.062 L502.671,131.062 C503.659,131.062 504.476,131.83 504.537,132.817 L504.674,135.032 C504.714,135.681 505.088,136.262 505.66,136.567 L506.29,136.903 C507.022,137.293 507.409,138.119 507.242,138.931 L507.213,139.073 C507.133,139.458 506.934,139.809 506.644,140.075 L506.135,140.542 C505.793,140.855 505.349,141.03 504.887,141.034 L423.402,141.761 C422.748,141.767 422.135,141.424 421.791,140.868 C421.63,140.609 421.533,140.311 421.512,140.007 L421.004,132.544 C420.993,132.382 421.003,132.219 421.035,132.059 L421.412,130.126 C421.497,129.691 421.734,129.3 422.08,129.024 L422.518,128.673 C422.693,128.533 422.891,128.426 423.104,128.356 L426.256,127.323 C426.456,127.257 426.644,127.158 426.811,127.03 L464.01,98.542 L454.704,98.303 C454.386,98.295 454.075,98.206 453.801,98.044 L452.853,97.484 C452.543,97.301 452.292,97.032 452.131,96.71 L451.583,95.613 L451.101,94.53 C450.978,94.252 450.924,93.948 450.944,93.645 L451.56,84.441 C451.575,84.22 451.55,83.998 451.487,83.785 L451.329,83.251 C451.085,82.427 451.434,81.542 452.176,81.106 L453.218,80.496 C453.645,80.246 454.154,80.175 454.633,80.299 L475.321,85.658 L491.665,92.184 C492.364,92.463 493.162,92.296 493.69,91.761 L500.332,85.025 C500.846,84.503 501.619,84.329 502.307,84.582 Z" />
        </g>
        <g id="Black-S">
            <path d="M702.307,84.582 L707.834,86.606 C708.534,86.863 709,87.53 709,88.276 C709,88.463 708.97,88.648 708.913,88.826 L702.34,109.032 C702.248,109.312 702.092,109.567 701.883,109.776 L701.51,110.149 C701.234,110.424 700.88,110.607 700.495,110.671 L699.601,110.82 C699.124,110.9 698.697,111.161 698.408,111.549 L697.313,113.022 C697.169,113.215 697.189,113.484 697.359,113.654 C697.482,113.777 697.53,113.957 697.483,114.125 L697.267,114.91 C697.14,115.368 697.262,115.86 697.589,116.205 C697.916,116.551 698.038,117.043 697.911,117.501 L694.566,129.612 C694.539,129.711 694.525,129.814 694.525,129.917 C694.525,130.549 695.038,131.062 695.67,131.062 L702.671,131.062 C703.659,131.062 704.476,131.83 704.537,132.817 L704.674,135.032 C704.714,135.681 705.088,136.262 705.66,136.567 L706.29,136.903 C707.022,137.293 707.409,138.119 707.242,138.931 L707.213,139.073 C707.133,139.458 706.934,139.809 706.644,140.075 L706.135,140.542 C705.793,140.855 705.349,141.03 704.887,141.034 L623.402,141.761 C622.748,141.767 622.135,141.424 621.791,140.868 C621.63,140.609 621.533,140.311 621.512,140.007 L621.004,132.544 C620.993,132.382 621.003,132.219 621.035,132.059 L621.412,130.126 C621.497,129.691 621.734,129.3 622.08,129.024 L622.518,128.673 C622.693,128.533 622.891,128.426 623.104,128.356 L626.256,127.323 C626.456,127.257 626.644,127.158 626.811,127.03 L664.01,98.542 L654.704,98.303 C654.386,98.295 654.075,98.206 653.801,98.044 L652.853,97.484 C652.543,97.301 652.292,97.032 652.131,96.71 L651.583,95.613 L651.101,94.53 C650.978,94.252 650.924,93.948 650.944,93.645 L651.56,84.441 C651.575,84.22 651.55,83.998 651.487,83.785 L651.329,83.251 C651.085,82.427 651.434,81.542 652.176,81.106 L653.218,80.496 C653.645,80.246 654.154,80.175 654.633,80.299 L675.321,85.658 L691.665,92.184 C692.364,92.463 693.162,92.296 693.69,91.761 L700.332,85.025 C700.846,84.503 701.619,84.329 702.307,84.582 Z" />
        </g>
    </g>
</svg>