<?xml version="1.0" encoding="UTF-8"?>
<svg height="600" width="800" xmlns="http://www.w3.org/2000/svg" xmlns:xlink="http://www.w3.org/1999/xlink">
    <g id="Notes" font-family="'LucidaGrande', 'Lucida Grande', sans-serif" font-size="13">
        <rect fill="white" height="600.0" width="800.0" x="0.0" y="0.0" />
        <g font-size="13">
            <text x="18.0" y="176.0">Small</text>
            <text x="18.0" y="376.0">Medium</text>
            <text x="18.0" y="576.0">Large</text>
        </g>
        <g font-size="9">
            <text x="250.0" y="30.0">Ultralight</text>
            <text x="450.0" y="30.0">Regular</text>
            <text x="650.0" y="30.0">Black</text>
            <text id="template-version" fill="#505050" text-anchor="end" x="785.0" y="575.0">Template v.3.0</text>
            <a href="https://wangchujiang.com/#/app">
                <text fill="#505050" text-anchor="end" x="785.0" y="590.0">https://wangchujiang.com/#/app</text>
            </a>
        </g>
    </g>
    <g id="Guides" stroke="rgb(39, 170, 225)" stroke-width="0.5">
        <path id="Capline-S" d="M18,76 l800,0" />
        <path id="H-reference" d="M85,145.755 L87.685,145.755 L113.369,79.287 L114.052,79.287 L114.052,76 L112.148,76 L85,145.755 Z M95.693,121.536 L130.996,121.536 L130.263,119.313 L96.474,119.313 L95.693,121.536 Z M139.15,145.755 L141.787,145.755 L114.638,76 L113.466,76 L113.466,79.287 L139.15,145.755 Z" stroke="none" />
        <path id="Baseline-S" d="M18,146 l800,0" />
        <path id="left-margin-Ultralight-S" d="M211,56 l0,110" />
        <path id="right-margin-Ultralight-S" d="M319,56 l0,110" />
        <path id="left-margin-Regular-S" d="M411,56 l0,110" />
        <path id="right-margin-Regular-S" d="M519,56 l0,110" />
        <path id="left-margin-Black-S" d="M611,56 l0,110" />
        <path id="right-margin-Black-S" d="M719,56 l0,110" />
        <path id="Capline-M" d="M18,276 l800,0" />
        <path id="Baseline-M" d="M18,346 l800,0" />
        <path id="Capline-L" d="M18,476 l800,0" />
        <path id="Baseline-L" d="M18,546 l800,0" />
    </g>
    <g id="Symbols">
        <g id="Ultralight-S">
            <path d="M275.592,83.506 L285.121,83.997 C286.16,84.05 286.975,84.908 286.975,85.949 L286.975,87.44 L288.787,87.44 C289.866,87.44 290.741,88.315 290.741,89.394 L290.741,108.669 C290.741,109.748 289.866,110.623 288.787,110.623 L287.728,110.623 L287.728,114.036 C287.728,114.723 288.089,115.359 288.677,115.712 L289.076,115.952 C289.292,116.081 289.53,116.167 289.778,116.206 L307.349,118.973 C308.331,119.128 309.039,119.993 308.998,120.985 L308.59,130.879 C308.575,131.211 308.519,131.541 308.422,131.859 L307.305,135.515 C306.942,136.704 306.035,137.649 304.862,138.061 L304.26,138.273 C303.844,138.419 303.405,138.494 302.964,138.494 L228.974,138.494 L225.275,138.031 C224.208,137.898 223.23,137.372 222.531,136.557 C221.932,135.858 221.572,134.986 221.503,134.068 L221.005,127.401 C220.964,126.844 221.162,126.296 221.551,125.895 L244.046,102.677 C244.257,102.459 244.375,102.168 244.375,101.865 C244.375,101.311 243.987,100.834 243.445,100.721 L235.115,98.986 C234.613,98.881 234.172,98.583 233.887,98.156 L233.153,97.055 C232.939,96.734 232.824,96.357 232.824,95.971 L232.824,88.091 C232.824,87.669 232.966,87.26 233.227,86.928 C233.557,86.508 234.05,86.248 234.583,86.213 L275.592,83.506 Z" />
        </g>
        <g id="Regular-S">
            <path d="M475.592,83.506 L485.121,83.997 C486.16,84.05 486.975,84.908 486.975,85.949 L486.975,87.44 L488.787,87.44 C489.866,87.44 490.741,88.315 490.741,89.394 L490.741,108.669 C490.741,109.748 489.866,110.623 488.787,110.623 L487.728,110.623 L487.728,114.036 C487.728,114.723 488.089,115.359 488.677,115.712 L489.076,115.952 C489.292,116.081 489.53,116.167 489.778,116.206 L507.349,118.973 C508.331,119.128 509.039,119.993 508.998,120.985 L508.59,130.879 C508.575,131.211 508.519,131.541 508.422,131.859 L507.305,135.515 C506.942,136.704 506.035,137.649 504.862,138.061 L504.26,138.273 C503.844,138.419 503.405,138.494 502.964,138.494 L428.974,138.494 L425.275,138.031 C424.208,137.898 423.23,137.372 422.531,136.557 C421.932,135.858 421.572,134.986 421.504,134.068 L421.005,127.401 C420.964,126.844 421.162,126.296 421.551,125.895 L444.046,102.677 C444.257,102.459 444.375,102.168 444.375,101.865 C444.375,101.311 443.987,100.834 443.445,100.721 L435.115,98.986 C434.613,98.881 434.172,98.583 433.887,98.156 L433.153,97.055 C432.939,96.734 432.824,96.357 432.824,95.971 L432.824,88.091 C432.824,87.669 432.966,87.26 433.227,86.928 C433.557,86.508 434.05,86.248 434.583,86.213 L475.592,83.506 Z" />
        </g>
        <g id="Black-S">
            <path d="M675.592,83.506 L685.121,83.997 C686.16,84.05 686.975,84.908 686.975,85.949 L686.975,87.44 L688.787,87.44 C689.866,87.44 690.741,88.315 690.741,89.394 L690.741,108.669 C690.741,109.748 689.866,110.623 688.787,110.623 L687.728,110.623 L687.728,114.036 C687.728,114.723 688.089,115.359 688.677,115.712 L689.076,115.952 C689.292,116.081 689.53,116.167 689.778,116.206 L707.349,118.973 C708.331,119.128 709.039,119.993 708.998,120.985 L708.59,130.879 C708.575,131.211 708.519,131.541 708.422,131.859 L707.305,135.515 C706.942,136.704 706.035,137.649 704.862,138.061 L704.26,138.273 C703.844,138.419 703.405,138.494 702.964,138.494 L628.974,138.494 L625.275,138.031 C624.208,137.898 623.23,137.372 622.531,136.557 C621.932,135.858 621.572,134.986 621.503,134.068 L621.005,127.401 C620.964,126.844 621.162,126.296 621.551,125.895 L644.046,102.677 C644.257,102.459 644.375,102.168 644.375,101.865 C644.375,101.311 643.987,100.834 643.445,100.721 L635.115,98.986 C634.613,98.881 634.172,98.583 633.887,98.156 L633.153,97.055 C632.939,96.734 632.824,96.357 632.824,95.971 L632.824,88.091 C632.824,87.669 632.966,87.26 633.227,86.928 C633.557,86.508 634.05,86.248 634.583,86.213 L675.592,83.506 Z" />
        </g>
    </g>
</svg>