<?xml version="1.0" encoding="UTF-8"?>
<svg height="600" width="800" xmlns="http://www.w3.org/2000/svg" xmlns:xlink="http://www.w3.org/1999/xlink">
    <g id="Notes" font-family="'LucidaGrande', 'Lucida Grande', sans-serif" font-size="13">
        <rect fill="white" height="600.0" width="800.0" x="0.0" y="0.0" />
        <g font-size="13">
            <text x="18.0" y="176.0">Small</text>
            <text x="18.0" y="376.0">Medium</text>
            <text x="18.0" y="576.0">Large</text>
        </g>
        <g font-size="9">
            <text x="250.0" y="30.0">Ultralight</text>
            <text x="450.0" y="30.0">Regular</text>
            <text x="650.0" y="30.0">Black</text>
            <text id="template-version" fill="#505050" text-anchor="end" x="785.0" y="575.0">Template v.3.0</text>
            <a href="https://wangchujiang.com/#/app">
                <text fill="#505050" text-anchor="end" x="785.0" y="590.0">https://wangchujiang.com/#/app</text>
            </a>
        </g>
    </g>
    <g id="Guides" stroke="rgb(39, 170, 225)" stroke-width="0.5">
        <path id="Capline-S" d="M18,76 l800,0" />
        <path id="H-reference" d="M85,145.755 L87.685,145.755 L113.369,79.287 L114.052,79.287 L114.052,76 L112.148,76 L85,145.755 Z M95.693,121.536 L130.996,121.536 L130.263,119.313 L96.474,119.313 L95.693,121.536 Z M139.15,145.755 L141.787,145.755 L114.638,76 L113.466,76 L113.466,79.287 L139.15,145.755 Z" stroke="none" />
        <path id="Baseline-S" d="M18,146 l800,0" />
        <path id="left-margin-Ultralight-S" d="M219.665,56 l0,110" />
        <path id="right-margin-Ultralight-S" d="M310.335,56 l0,110" />
        <path id="left-margin-Regular-S" d="M419.665,56 l0,110" />
        <path id="right-margin-Regular-S" d="M510.335,56 l0,110" />
        <path id="left-margin-Black-S" d="M619.665,56 l0,110" />
        <path id="right-margin-Black-S" d="M710.335,56 l0,110" />
        <path id="Capline-M" d="M18,276 l800,0" />
        <path id="Baseline-M" d="M18,346 l800,0" />
        <path id="Capline-L" d="M18,476 l800,0" />
        <path id="Baseline-L" d="M18,546 l800,0" />
    </g>
    <g id="Symbols">
        <g id="Ultralight-S">
            <path d="M281.648,77.493 L281.648,81.486 C281.648,81.985 281.897,82.451 282.312,82.728 L292.855,89.758 C293.271,90.035 293.52,90.501 293.52,91 L293.52,91.302 C293.52,92.126 292.851,92.795 292.027,92.795 L284.135,92.795 C283.31,92.795 282.642,93.463 282.642,94.287 L282.642,123.571 C282.642,124.35 283.273,124.982 284.052,124.982 L284.747,124.982 C285.142,124.982 285.463,125.303 285.463,125.698 C285.463,126.077 285.758,126.39 286.136,126.413 L287.22,126.478 C287.624,126.502 287.965,126.182 287.965,125.777 C287.965,125.39 288.279,125.075 288.667,125.075 L290.762,125.075 C291.179,125.075 291.518,125.414 291.518,125.832 C291.518,126.223 291.816,126.55 292.207,126.585 L298.976,127.191 C299.745,127.26 300.335,127.905 300.335,128.678 L300.335,131.405 C300.335,131.762 300.046,132.05 299.69,132.05 C299.378,132.05 299.111,132.274 299.056,132.581 L296.871,144.771 C296.743,145.482 296.138,146 295.416,146 L230.981,146 C230.394,146 229.913,144.712 229.707,143.931 C229.678,143.82 229.665,143.705 229.665,143.59 L229.665,132.592 C229.665,132.242 229.788,131.903 230.012,131.635 L239.93,119.755 C240.678,118.858 240.155,117.489 239,117.321 L235.799,116.854 C235.49,116.809 235.174,116.862 234.897,117.006 L233.95,117.496 C232.957,118.012 231.77,117.291 231.77,116.171 L231.77,106.053 C231.77,104.973 232.882,104.25 233.869,104.689 L234.958,105.173 C235.198,105.279 235.461,105.321 235.721,105.293 L267.546,101.923 C268.306,101.843 268.882,101.202 268.882,100.439 L268.882,90.353 C268.882,90.252 268.892,90.151 268.913,90.052 L271.423,77.862 C271.555,77.218 272.093,76.736 272.748,76.676 L280.018,76.006 C280.893,75.926 281.648,76.614 281.648,77.493 Z" />
        </g>
        <g id="Regular-S">
            <path d="M481.648,77.493 L481.648,81.486 C481.648,81.985 481.897,82.451 482.312,82.728 L492.855,89.758 C493.271,90.035 493.52,90.501 493.52,91 L493.52,91.302 C493.52,92.126 492.851,92.795 492.027,92.795 L484.135,92.795 C483.31,92.795 482.642,93.463 482.642,94.287 L482.642,123.571 C482.642,124.35 483.273,124.982 484.052,124.982 L484.747,124.982 C485.142,124.982 485.463,125.303 485.463,125.698 C485.463,126.077 485.758,126.39 486.136,126.413 L487.22,126.478 C487.624,126.502 487.965,126.182 487.965,125.777 C487.965,125.39 488.279,125.075 488.667,125.075 L490.762,125.075 C491.179,125.075 491.518,125.414 491.518,125.832 C491.518,126.223 491.816,126.55 492.207,126.585 L498.976,127.191 C499.745,127.26 500.335,127.905 500.335,128.678 L500.335,131.405 C500.335,131.762 500.046,132.05 499.69,132.05 C499.378,132.05 499.111,132.274 499.056,132.581 L496.871,144.771 C496.743,145.482 496.138,146 495.416,146 L430.981,146 C430.394,146 429.913,144.712 429.707,143.931 C429.678,143.82 429.665,143.705 429.665,143.59 L429.665,132.592 C429.665,132.242 429.788,131.903 430.012,131.635 L439.93,119.755 C440.678,118.858 440.155,117.489 439,117.321 L435.799,116.854 C435.49,116.809 435.174,116.862 434.897,117.006 L433.95,117.496 C432.957,118.012 431.77,117.291 431.77,116.171 L431.77,106.053 C431.77,104.973 432.882,104.25 433.869,104.689 L434.958,105.173 C435.198,105.279 435.461,105.321 435.721,105.293 L467.546,101.923 C468.306,101.843 468.882,101.202 468.882,100.439 L468.882,90.353 C468.882,90.252 468.892,90.151 468.913,90.052 L471.423,77.862 C471.555,77.218 472.093,76.736 472.748,76.676 L480.018,76.006 C480.893,75.926 481.648,76.614 481.648,77.493 Z" />
        </g>
        <g id="Black-S">
            <path d="M681.648,77.493 L681.648,81.486 C681.648,81.985 681.897,82.451 682.312,82.728 L692.855,89.758 C693.271,90.035 693.52,90.501 693.52,91 L693.52,91.302 C693.52,92.126 692.851,92.795 692.027,92.795 L684.135,92.795 C683.31,92.795 682.642,93.463 682.642,94.287 L682.642,123.571 C682.642,124.35 683.273,124.982 684.052,124.982 L684.747,124.982 C685.142,124.982 685.463,125.303 685.463,125.698 C685.463,126.077 685.758,126.39 686.136,126.413 L687.22,126.478 C687.624,126.502 687.965,126.182 687.965,125.777 C687.965,125.39 688.279,125.075 688.667,125.075 L690.762,125.075 C691.179,125.075 691.518,125.414 691.518,125.832 C691.518,126.223 691.816,126.55 692.207,126.585 L698.976,127.191 C699.745,127.26 700.335,127.905 700.335,128.678 L700.335,131.405 C700.335,131.762 700.046,132.05 699.69,132.05 C699.378,132.05 699.111,132.274 699.056,132.581 L696.871,144.771 C696.743,145.482 696.138,146 695.416,146 L630.981,146 C630.394,146 629.913,144.712 629.707,143.931 C629.678,143.82 629.665,143.705 629.665,143.59 L629.665,132.592 C629.665,132.242 629.788,131.903 630.012,131.635 L639.93,119.755 C640.678,118.858 640.155,117.489 639,117.321 L635.799,116.854 C635.49,116.809 635.174,116.862 634.897,117.006 L633.95,117.496 C632.957,118.012 631.77,117.291 631.77,116.171 L631.77,106.053 C631.77,104.973 632.882,104.25 633.87,104.689 L634.958,105.173 C635.198,105.279 635.461,105.321 635.721,105.293 L667.546,101.923 C668.306,101.843 668.882,101.202 668.882,100.439 L668.882,90.353 C668.882,90.252 668.892,90.151 668.913,90.052 L671.423,77.862 C671.555,77.218 672.093,76.736 672.748,76.676 L680.018,76.006 C680.893,75.926 681.648,76.614 681.648,77.493 Z" />
        </g>
    </g>
</svg>