<?xml version="1.0" encoding="UTF-8"?>
<svg height="600" width="800" xmlns="http://www.w3.org/2000/svg" xmlns:xlink="http://www.w3.org/1999/xlink">
    <g id="Notes" font-family="'LucidaGrande', 'Lucida Grande', sans-serif" font-size="13">
        <rect fill="white" height="600.0" width="800.0" x="0.0" y="0.0" />
        <g font-size="13">
            <text x="18.0" y="176.0">Small</text>
            <text x="18.0" y="376.0">Medium</text>
            <text x="18.0" y="576.0">Large</text>
        </g>
        <g font-size="9">
            <text x="250.0" y="30.0">Ultralight</text>
            <text x="450.0" y="30.0">Regular</text>
            <text x="650.0" y="30.0">Black</text>
            <text id="template-version" fill="#505050" text-anchor="end" x="785.0" y="575.0">Template v.3.0</text>
            <a href="https://wangchujiang.com/#/app">
                <text fill="#505050" text-anchor="end" x="785.0" y="590.0">https://wangchujiang.com/#/app</text>
            </a>
        </g>
    </g>
    <g id="Guides" stroke="rgb(39, 170, 225)" stroke-width="0.5">
        <path id="Capline-S" d="M18,76 l800,0" />
        <path id="H-reference" d="M85,145.755 L87.685,145.755 L113.369,79.287 L114.052,79.287 L114.052,76 L112.148,76 L85,145.755 Z M95.693,121.536 L130.996,121.536 L130.263,119.313 L96.474,119.313 L95.693,121.536 Z M139.15,145.755 L141.787,145.755 L114.638,76 L113.466,76 L113.466,79.287 L139.15,145.755 Z" stroke="none" />
        <path id="Baseline-S" d="M18,146 l800,0" />
        <path id="left-margin-Ultralight-S" d="M211,56 l0,110" />
        <path id="right-margin-Ultralight-S" d="M319,56 l0,110" />
        <path id="left-margin-Regular-S" d="M411,56 l0,110" />
        <path id="right-margin-Regular-S" d="M519,56 l0,110" />
        <path id="left-margin-Black-S" d="M611,56 l0,110" />
        <path id="right-margin-Black-S" d="M719,56 l0,110" />
        <path id="Capline-M" d="M18,276 l800,0" />
        <path id="Baseline-M" d="M18,346 l800,0" />
        <path id="Capline-L" d="M18,476 l800,0" />
        <path id="Baseline-L" d="M18,546 l800,0" />
    </g>
    <g id="Symbols">
        <g id="Ultralight-S">
            <path d="M300.699,89.644 L306.659,91.827 C307.4,92.099 307.892,92.804 307.892,93.592 C307.892,93.752 307.871,93.912 307.831,94.067 L303.95,108.927 C303.864,109.255 303.693,109.554 303.453,109.794 L303.115,110.132 C302.833,110.413 302.472,110.599 302.08,110.665 L301.168,110.816 C300.681,110.898 300.245,111.164 299.951,111.56 L298.834,113.063 C298.687,113.259 298.707,113.534 298.88,113.707 C299.006,113.833 299.055,114.016 299.007,114.188 L298.787,114.988 C298.658,115.455 298.782,115.957 299.115,116.309 C299.449,116.662 299.573,117.163 299.444,117.631 L296.032,129.983 C296.004,130.084 295.99,130.189 295.99,130.294 C295.99,130.939 296.513,131.461 297.158,131.461 L304.298,131.461 C305.306,131.461 306.14,132.246 306.202,133.252 L306.341,135.511 C306.382,136.172 306.764,136.765 307.348,137.077 L307.99,137.419 C308.736,137.817 309.131,138.659 308.961,139.487 L308.931,139.632 C308.85,140.025 308.647,140.383 308.351,140.654 L307.831,141.131 C307.483,141.45 307.03,141.628 306.559,141.632 L223.45,142.374 C222.783,142.38 222.157,142.03 221.806,141.464 C221.643,141.199 221.544,140.896 221.523,140.585 L221.004,132.974 C220.993,132.808 221.004,132.642 221.035,132.478 L221.421,130.507 C221.507,130.063 221.748,129.665 222.101,129.383 L222.549,129.025 C222.727,128.883 222.929,128.773 223.146,128.702 L226.361,127.648 C226.565,127.581 226.756,127.48 226.927,127.35 L264.867,98.294 L255.376,98.05 C255.051,98.042 254.734,97.951 254.454,97.786 L253.487,97.214 C253.171,97.028 252.916,96.754 252.752,96.425 L252.192,95.307 L251.701,94.202 C251.575,93.918 251.52,93.608 251.541,93.299 L252.169,83.912 C252.184,83.686 252.159,83.46 252.095,83.242 L251.934,82.698 C251.684,81.857 252.041,80.954 252.798,80.511 L253.86,79.888 C254.295,79.633 254.814,79.56 255.303,79.687 L276.404,85.153 L293.441,91.956 C293.954,92.161 294.532,92.133 295.023,91.88 L299.169,89.74 C299.644,89.495 300.199,89.46 300.699,89.644 Z" />
        </g>
        <g id="Regular-S">
            <path d="M500.699,89.644 L506.659,91.827 C507.4,92.099 507.892,92.804 507.892,93.592 C507.892,93.752 507.871,93.912 507.831,94.067 L503.95,108.927 C503.864,109.255 503.693,109.554 503.453,109.794 L503.115,110.132 C502.833,110.413 502.472,110.599 502.08,110.665 L501.168,110.816 C500.681,110.898 500.245,111.164 499.951,111.56 L498.834,113.063 C498.687,113.259 498.707,113.534 498.88,113.707 C499.006,113.833 499.055,114.016 499.007,114.188 L498.787,114.988 C498.658,115.455 498.782,115.957 499.115,116.309 C499.449,116.662 499.573,117.163 499.444,117.631 L496.032,129.983 C496.004,130.084 495.99,130.189 495.99,130.294 C495.99,130.939 496.513,131.461 497.158,131.461 L504.298,131.461 C505.306,131.461 506.14,132.246 506.202,133.252 L506.341,135.511 C506.382,136.172 506.764,136.765 507.348,137.077 L507.99,137.419 C508.736,137.817 509.131,138.659 508.961,139.487 L508.931,139.632 C508.85,140.025 508.647,140.383 508.351,140.654 L507.831,141.131 C507.483,141.45 507.03,141.628 506.559,141.632 L423.45,142.374 C422.783,142.38 422.157,142.03 421.806,141.464 C421.643,141.199 421.544,140.896 421.523,140.585 L421.004,132.974 C420.993,132.808 421.004,132.642 421.035,132.478 L421.421,130.507 C421.507,130.063 421.748,129.665 422.101,129.383 L422.549,129.025 C422.727,128.883 422.929,128.773 423.146,128.702 L426.361,127.648 C426.565,127.581 426.756,127.48 426.927,127.35 L464.867,98.294 L455.376,98.05 C455.051,98.042 454.734,97.951 454.454,97.786 L453.487,97.214 C453.171,97.028 452.916,96.754 452.752,96.425 L452.192,95.307 L451.701,94.202 C451.575,93.918 451.52,93.608 451.541,93.299 L452.169,83.912 C452.184,83.686 452.159,83.46 452.095,83.242 L451.934,82.698 C451.684,81.857 452.041,80.954 452.798,80.511 L453.86,79.888 C454.295,79.633 454.814,79.56 455.303,79.687 L476.404,85.153 L493.441,91.956 C493.954,92.161 494.532,92.133 495.023,91.88 L499.169,89.74 C499.644,89.495 500.199,89.46 500.699,89.644 Z" />
        </g>
        <g id="Black-S">
            <path d="M700.699,89.644 L706.659,91.827 C707.4,92.099 707.892,92.804 707.892,93.592 C707.892,93.752 707.871,93.912 707.831,94.067 L703.95,108.927 C703.864,109.255 703.693,109.554 703.453,109.794 L703.115,110.132 C702.833,110.413 702.472,110.599 702.08,110.665 L701.168,110.816 C700.681,110.898 700.245,111.164 699.951,111.56 L698.834,113.063 C698.687,113.259 698.707,113.534 698.88,113.707 C699.006,113.833 699.055,114.016 699.007,114.188 L698.787,114.988 C698.658,115.455 698.782,115.957 699.115,116.309 C699.449,116.662 699.573,117.163 699.444,117.631 L696.032,129.983 C696.004,130.084 695.99,130.189 695.99,130.294 C695.99,130.939 696.513,131.461 697.158,131.461 L704.298,131.461 C705.306,131.461 706.14,132.246 706.202,133.252 L706.341,135.511 C706.382,136.172 706.764,136.765 707.348,137.077 L707.99,137.419 C708.736,137.817 709.131,138.659 708.961,139.487 L708.931,139.632 C708.85,140.025 708.647,140.383 708.351,140.654 L707.831,141.131 C707.483,141.45 707.03,141.628 706.559,141.632 L623.45,142.374 C622.783,142.38 622.157,142.03 621.806,141.464 C621.642,141.199 621.544,140.896 621.523,140.585 L621.004,132.974 C620.993,132.808 621.004,132.642 621.035,132.478 L621.421,130.507 C621.507,130.063 621.748,129.665 622.101,129.383 L622.549,129.025 C622.727,128.883 622.929,128.773 623.146,128.702 L626.361,127.648 C626.565,127.581 626.756,127.48 626.927,127.35 L664.867,98.294 L655.376,98.05 C655.051,98.042 654.734,97.951 654.454,97.786 L653.487,97.214 C653.171,97.028 652.916,96.754 652.752,96.425 L652.192,95.307 L651.701,94.202 C651.575,93.918 651.52,93.608 651.541,93.299 L652.169,83.912 C652.184,83.686 652.159,83.46 652.095,83.242 L651.934,82.698 C651.684,81.857 652.041,80.954 652.798,80.511 L653.86,79.888 C654.295,79.633 654.814,79.56 655.303,79.687 L676.404,85.153 L693.441,91.956 C693.954,92.161 694.532,92.133 695.023,91.88 L699.169,89.74 C699.643,89.495 700.199,89.46 700.699,89.644 Z" />
        </g>
    </g>
</svg>