<?xml version="1.0" encoding="UTF-8"?>
<svg height="600" width="800" xmlns="http://www.w3.org/2000/svg" xmlns:xlink="http://www.w3.org/1999/xlink">
    <g id="Notes" font-family="'LucidaGrande', 'Lucida Grande', sans-serif" font-size="13">
        <rect fill="white" height="600.0" width="800.0" x="0.0" y="0.0" />
        <g font-size="13">
            <text x="18.0" y="176.0">Small</text>
            <text x="18.0" y="376.0">Medium</text>
            <text x="18.0" y="576.0">Large</text>
        </g>
        <g font-size="9">
            <text x="250.0" y="30.0">Ultralight</text>
            <text x="450.0" y="30.0">Regular</text>
            <text x="650.0" y="30.0">Black</text>
            <text id="template-version" fill="#505050" text-anchor="end" x="785.0" y="575.0">Template v.3.0</text>
            <a href="https://wangchujiang.com/#/app">
                <text fill="#505050" text-anchor="end" x="785.0" y="590.0">https://wangchujiang.com/#/app</text>
            </a>
        </g>
    </g>
    <g id="Guides" stroke="rgb(39, 170, 225)" stroke-width="0.5">
        <path id="Capline-S" d="M18,76 l800,0" />
        <path id="H-reference" d="M85,145.755 L87.685,145.755 L113.369,79.287 L114.052,79.287 L114.052,76 L112.148,76 L85,145.755 Z M95.693,121.536 L130.996,121.536 L130.263,119.313 L96.474,119.313 L95.693,121.536 Z M139.15,145.755 L141.787,145.755 L114.638,76 L113.466,76 L113.466,79.287 L139.15,145.755 Z" stroke="none" />
        <path id="Baseline-S" d="M18,146 l800,0" />
        <path id="left-margin-Ultralight-S" d="M221,56 l0,110" />
        <path id="right-margin-Ultralight-S" d="M309,56 l0,110" />
        <path id="left-margin-Regular-S" d="M421,56 l0,110" />
        <path id="right-margin-Regular-S" d="M509,56 l0,110" />
        <path id="left-margin-Black-S" d="M621,56 l0,110" />
        <path id="right-margin-Black-S" d="M709,56 l0,110" />
        <path id="Capline-M" d="M18,276 l800,0" />
        <path id="Baseline-M" d="M18,346 l800,0" />
        <path id="Capline-L" d="M18,476 l800,0" />
        <path id="Baseline-L" d="M18,546 l800,0" />
    </g>
    <g id="Symbols">
        <g id="Ultralight-S">
            <path d="M294.793,145.843 C294.793,145.93 294.723,146 294.636,146 L235.364,146 C235.277,146 235.207,145.93 235.207,145.843 L235.207,76.157 C235.207,76.07 235.277,76 235.364,76 L294.636,76 C294.723,76 294.793,76.07 294.793,76.157 L294.793,145.843 Z M239.464,80.1 C239.377,80.1 239.307,80.17 239.307,80.257 L239.307,131.328 C239.307,131.415 239.377,131.485 239.464,131.485 L290.536,131.485 C290.623,131.485 290.693,131.415 290.693,131.328 L290.693,80.257 C290.693,80.17 290.623,80.1 290.536,80.1 L239.464,80.1 Z" />
        </g>
        <g id="Regular-S">
            <path d="M494.793,145.843 C494.793,145.93 494.723,146 494.636,146 L435.364,146 C435.277,146 435.207,145.93 435.207,145.843 L435.207,76.157 C435.207,76.07 435.277,76 435.364,76 L494.636,76 C494.723,76 494.793,76.07 494.793,76.157 L494.793,145.843 Z M439.464,80.1 C439.377,80.1 439.307,80.17 439.307,80.257 L439.307,131.328 C439.307,131.415 439.377,131.485 439.464,131.485 L490.536,131.485 C490.623,131.485 490.693,131.415 490.693,131.328 L490.693,80.257 C490.693,80.17 490.623,80.1 490.536,80.1 L439.464,80.1 Z" />
        </g>
        <g id="Black-S">
            <path d="M694.793,145.843 C694.793,145.93 694.723,146 694.636,146 L635.364,146 C635.277,146 635.207,145.93 635.207,145.843 L635.207,76.157 C635.207,76.07 635.277,76 635.364,76 L694.636,76 C694.723,76 694.793,76.07 694.793,76.157 L694.793,145.843 Z M639.464,80.1 C639.377,80.1 639.307,80.17 639.307,80.257 L639.307,131.328 C639.307,131.415 639.377,131.485 639.464,131.485 L690.536,131.485 C690.623,131.485 690.693,131.415 690.693,131.328 L690.693,80.257 C690.693,80.17 690.623,80.1 690.536,80.1 L639.464,80.1 Z" />
        </g>
    </g>
</svg>