<?xml version="1.0" encoding="UTF-8"?>
<svg height="600" width="800" xmlns="http://www.w3.org/2000/svg" xmlns:xlink="http://www.w3.org/1999/xlink">
    <g id="Notes" font-family="'LucidaGrande', 'Lucida Grande', sans-serif" font-size="13">
        <rect fill="white" height="600.0" width="800.0" x="0.0" y="0.0" />
        <g font-size="13">
            <text x="18.0" y="176.0">Small</text>
            <text x="18.0" y="376.0">Medium</text>
            <text x="18.0" y="576.0">Large</text>
        </g>
        <g font-size="9">
            <text x="250.0" y="30.0">Ultralight</text>
            <text x="450.0" y="30.0">Regular</text>
            <text x="650.0" y="30.0">Black</text>
            <text id="template-version" fill="#505050" text-anchor="end" x="785.0" y="575.0">Template v.3.0</text>
            <a href="https://wangchujiang.com/#/app">
                <text fill="#505050" text-anchor="end" x="785.0" y="590.0">https://wangchujiang.com/#/app</text>
            </a>
        </g>
    </g>
    <g id="Guides" stroke="rgb(39, 170, 225)" stroke-width="0.5">
        <path id="Capline-S" d="M18,76 l800,0" />
        <path id="H-reference" d="M85,145.755 L87.685,145.755 L113.369,79.287 L114.052,79.287 L114.052,76 L112.148,76 L85,145.755 Z M95.693,121.536 L130.996,121.536 L130.263,119.313 L96.474,119.313 L95.693,121.536 Z M139.15,145.755 L141.787,145.755 L114.638,76 L113.466,76 L113.466,79.287 L139.15,145.755 Z" stroke="none" />
        <path id="Baseline-S" d="M18,146 l800,0" />
        <path id="left-margin-Ultralight-S" d="M219.622,56 l0,110" />
        <path id="right-margin-Ultralight-S" d="M310.378,56 l0,110" />
        <path id="left-margin-Regular-S" d="M419.622,56 l0,110" />
        <path id="right-margin-Regular-S" d="M510.378,56 l0,110" />
        <path id="left-margin-Black-S" d="M619.622,56 l0,110" />
        <path id="right-margin-Black-S" d="M710.378,56 l0,110" />
        <path id="Capline-M" d="M18,276 l800,0" />
        <path id="Baseline-M" d="M18,346 l800,0" />
        <path id="Capline-L" d="M18,476 l800,0" />
        <path id="Baseline-L" d="M18,546 l800,0" />
    </g>
    <g id="Symbols">
        <g id="Ultralight-S">
            <path d="M271.167,76 C271.389,76 271.611,76.019 271.83,76.057 L279.236,77.323 C281.124,77.646 282.505,79.283 282.505,81.199 L282.505,87.295 C282.505,87.998 282.787,88.671 283.289,89.165 L283.622,89.492 C284.446,90.303 285.765,90.313 286.601,89.515 C286.84,89.287 287.158,89.16 287.488,89.16 L293.886,89.16 C296.147,89.16 298.091,90.766 298.518,92.988 L299.059,95.798 L300.378,110.693 L299.884,123.163 C299.873,123.444 299.81,123.72 299.697,123.978 C299.428,124.594 298.898,125.057 298.253,125.243 L296.601,125.718 C294.385,126.356 292.955,128.501 293.218,130.792 L293.865,136.426 C293.988,137.49 293.891,138.567 293.583,139.593 L292.634,142.744 C292.22,144.116 291.189,145.214 289.846,145.714 C289.336,145.902 288.797,146 288.253,146 L248.113,146 C247.565,146 247.024,145.873 246.534,145.627 C245.636,145.179 244.971,144.369 244.706,143.401 L243.993,140.802 C243.807,140.124 243.714,139.424 243.714,138.722 L243.714,134.718 C243.714,131.037 241.159,127.848 237.566,127.044 L233.223,126.073 C231.95,125.788 230.985,124.746 230.797,123.455 L229.654,115.584 C229.629,115.406 229.618,115.226 229.623,115.046 L230.023,100.488 C230.028,100.312 230.048,100.136 230.082,99.963 L231.601,92.308 C231.893,90.835 233.185,89.774 234.686,89.774 L241.189,89.774 C241.691,89.774 242.174,89.969 242.536,90.317 C243.381,91.129 244.746,91.015 245.445,90.075 L245.798,89.6 C246.114,89.175 246.284,88.659 246.284,88.129 L246.284,81.015 C246.284,78.979 247.838,77.279 249.866,77.098 L253.944,76.734 L264.163,76 L271.167,76 Z M241.896,96.36 C241.407,96.305 240.932,96.541 240.682,96.965 L240.585,97.128 C240.453,97.351 240.38,97.604 240.372,97.863 L239.708,119.42 C239.688,120.087 239.972,120.727 240.481,121.158 L240.702,121.344 C240.955,121.557 241.274,121.675 241.604,121.675 C242.375,121.675 243.001,121.05 243.001,120.278 L243.001,97.598 C243.001,96.965 242.525,96.432 241.896,96.36 Z M287.505,96.318 C286.549,96.318 285.776,97.098 285.786,98.055 L285.994,119.296 C286.005,120.452 286.945,121.383 288.101,121.383 L288.216,121.383 C288.861,121.382 289.462,121.054 289.811,120.512 C290.021,120.185 290.126,119.8 290.111,119.412 L289.27,98.071 C289.257,97.758 289.165,97.453 289.001,97.186 L288.97,97.136 C288.657,96.628 288.102,96.318 287.505,96.318 Z" />
        </g>
        <g id="Regular-S">
            <path d="M471.167,76 C471.389,76 471.611,76.019 471.83,76.057 L479.236,77.323 C481.124,77.646 482.505,79.283 482.505,81.199 L482.505,87.295 C482.505,87.998 482.787,88.671 483.289,89.165 L483.622,89.492 C484.446,90.303 485.765,90.313 486.601,89.515 C486.84,89.287 487.158,89.16 487.488,89.16 L493.886,89.16 C496.147,89.16 498.091,90.766 498.518,92.988 L499.059,95.798 L500.378,110.693 L499.884,123.163 C499.873,123.444 499.81,123.72 499.697,123.978 C499.428,124.594 498.898,125.057 498.253,125.243 L496.601,125.718 C494.385,126.356 492.955,128.501 493.218,130.792 L493.865,136.426 C493.988,137.49 493.891,138.567 493.583,139.593 L492.634,142.744 C492.22,144.116 491.189,145.214 489.846,145.714 C489.336,145.902 488.797,146 488.253,146 L448.113,146 C447.565,146 447.024,145.873 446.534,145.627 C445.636,145.179 444.971,144.369 444.706,143.401 L443.993,140.802 C443.807,140.124 443.714,139.424 443.714,138.722 L443.714,134.718 C443.714,131.037 441.159,127.848 437.566,127.044 L433.223,126.073 C431.95,125.788 430.985,124.746 430.797,123.455 L429.654,115.584 C429.629,115.406 429.618,115.226 429.623,115.046 L430.023,100.488 C430.028,100.312 430.048,100.136 430.082,99.963 L431.601,92.308 C431.893,90.835 433.185,89.774 434.686,89.774 L441.189,89.774 C441.691,89.774 442.174,89.969 442.536,90.317 C443.381,91.129 444.746,91.015 445.445,90.075 L445.798,89.6 C446.114,89.175 446.284,88.659 446.284,88.129 L446.284,81.015 C446.284,78.979 447.838,77.279 449.866,77.098 L453.944,76.734 L464.163,76 L471.167,76 Z M441.896,96.36 C441.407,96.305 440.932,96.541 440.682,96.965 L440.585,97.128 C440.453,97.351 440.38,97.604 440.372,97.863 L439.708,119.42 C439.688,120.087 439.972,120.727 440.481,121.158 L440.702,121.344 C440.955,121.557 441.274,121.675 441.604,121.675 C442.375,121.675 443.001,121.05 443.001,120.278 L443.001,97.598 C443.001,96.965 442.525,96.432 441.896,96.36 Z M487.505,96.318 C486.549,96.318 485.776,97.098 485.786,98.055 L485.994,119.296 C486.005,120.452 486.945,121.383 488.101,121.383 L488.216,121.383 C488.861,121.382 489.462,121.054 489.811,120.512 C490.021,120.185 490.126,119.8 490.111,119.412 L489.27,98.071 C489.257,97.758 489.165,97.453 489.001,97.186 L488.97,97.136 C488.657,96.628 488.102,96.318 487.505,96.318 Z" />
        </g>
        <g id="Black-S">
            <path d="M671.167,76 C671.389,76 671.611,76.019 671.83,76.057 L679.236,77.323 C681.124,77.646 682.505,79.283 682.505,81.199 L682.505,87.295 C682.505,87.998 682.787,88.671 683.289,89.165 L683.622,89.492 C684.446,90.303 685.765,90.313 686.601,89.515 C686.84,89.287 687.158,89.16 687.488,89.16 L693.886,89.16 C696.147,89.16 698.091,90.766 698.518,92.988 L699.059,95.798 L700.378,110.693 L699.884,123.163 C699.873,123.444 699.81,123.72 699.697,123.978 C699.428,124.594 698.898,125.057 698.253,125.243 L696.601,125.718 C694.385,126.356 692.955,128.501 693.218,130.792 L693.865,136.426 C693.988,137.49 693.891,138.567 693.583,139.593 L692.634,142.744 C692.22,144.116 691.189,145.214 689.846,145.714 C689.336,145.902 688.797,146 688.253,146 L648.113,146 C647.565,146 647.024,145.873 646.534,145.627 C645.636,145.179 644.971,144.369 644.706,143.401 L643.993,140.802 C643.807,140.124 643.714,139.424 643.714,138.722 L643.714,134.718 C643.714,131.037 641.159,127.848 637.566,127.044 L633.223,126.073 C631.95,125.788 630.985,124.746 630.797,123.455 L629.654,115.584 C629.629,115.406 629.618,115.226 629.623,115.046 L630.023,100.488 C630.028,100.312 630.048,100.136 630.082,99.963 L631.601,92.308 C631.893,90.835 633.185,89.774 634.686,89.774 L641.189,89.774 C641.691,89.774 642.174,89.969 642.536,90.317 C643.381,91.129 644.746,91.015 645.445,90.075 L645.798,89.6 C646.114,89.175 646.284,88.659 646.284,88.129 L646.284,81.015 C646.284,78.979 647.838,77.279 649.866,77.098 L653.944,76.734 L664.163,76 L671.167,76 Z M641.896,96.36 C641.407,96.305 640.932,96.541 640.682,96.965 L640.585,97.128 C640.453,97.351 640.38,97.604 640.372,97.863 L639.708,119.42 C639.688,120.087 639.972,120.727 640.481,121.158 L640.702,121.344 C640.955,121.557 641.274,121.675 641.604,121.675 C642.375,121.675 643.001,121.05 643.001,120.278 L643.001,97.598 C643.001,96.965 642.525,96.432 641.896,96.36 Z M687.505,96.318 C686.549,96.318 685.776,97.098 685.786,98.055 L685.994,119.296 C686.005,120.452 686.945,121.383 688.101,121.383 L688.216,121.383 C688.861,121.382 689.462,121.054 689.811,120.512 C690.021,120.185 690.126,119.8 690.111,119.412 L689.27,98.071 C689.257,97.758 689.165,97.453 689.001,97.186 L688.97,97.136 C688.657,96.628 688.102,96.318 687.505,96.318 Z" />
        </g>
    </g>
</svg>